<?xml version="1.0" encoding="UTF-8" standalone="no"?>
<!-- Created with Inkscape (http://www.inkscape.org/) -->

<svg
   xmlns:dc="http://purl.org/dc/elements/1.1/"
   xmlns:cc="http://creativecommons.org/ns#"
   xmlns:rdf="http://www.w3.org/1999/02/22-rdf-syntax-ns#"
   xmlns:svg="http://www.w3.org/2000/svg"
   xmlns="http://www.w3.org/2000/svg"
   xmlns:sodipodi="http://sodipodi.sourceforge.net/DTD/sodipodi-0.dtd"
   xmlns:inkscape="http://www.inkscape.org/namespaces/inkscape"
   width="297mm"
   height="210mm"
   viewBox="0 0 297 210"
   id="svg4152"
   version="1.1"
   inkscape:version="0.91 r13725"
   sodipodi:docname="mind-map.svg"
   inkscape:export-filename="/home/roberto/Documents/Presentations/phd-forsvaring/images/mind-map.png"
   inkscape:export-xdpi="199"
   inkscape:export-ydpi="199">
  <defs
     id="defs4154" />
  <sodipodi:namedview
     inkscape:document-units="mm"
     pagecolor="#ffffff"
     bordercolor="#666666"
     borderopacity="1.0"
     inkscape:pageopacity="0.0"
     inkscape:pageshadow="2"
     inkscape:zoom="1.1"
     inkscape:cx="479.98363"
     inkscape:cy="359.86731"
     inkscape:current-layer="layer6"
     id="namedview4156"
     showgrid="false"
     inkscape:window-width="2560"
     inkscape:window-height="1376"
     inkscape:window-x="0"
     inkscape:window-y="27"
     inkscape:window-maximized="1"
     showguides="false" />
  <metadata
     id="metadata4158">
    <rdf:RDF>
      <cc:Work
         rdf:about="">
        <dc:format>image/svg+xml</dc:format>
        <dc:type
           rdf:resource="http://purl.org/dc/dcmitype/StillImage" />
        <dc:title />
      </cc:Work>
    </rdf:RDF>
  </metadata>
  <g
     inkscape:label="above-beyond"
     inkscape:groupmode="layer"
     id="layer1"
     style="display:inline">
    <path
       style="opacity:0.95;fill:#e5f5e0;fill-opacity:1;fill-rule:evenodd;stroke:none;stroke-width:0.28222221px;stroke-linecap:butt;stroke-linejoin:miter;stroke-opacity:1"
       id="path4701-6"
       sodipodi:type="arc"
       sodipodi:cx="268.81738"
       sodipodi:cy="29.242437"
       sodipodi:rx="43.444725"
       sodipodi:ry="29.523977"
       sodipodi:start="0.062845641"
       sodipodi:end="0.062629918"
       d="M 312.17634,31.09667 A 43.444725,29.523977 0 0 1 266.09121,58.70823 43.444725,29.523977 0 0 1 225.45813,27.391383 43.444725,29.523977 0 0 1 271.53888,-0.22355514 43.444725,29.523977 0 0 1 312.17693,31.090313 l -43.35955,-1.847876 z"
       transform="matrix(0.9532922,0.30204964,-0.25638421,0.96657495,0,0)" />
    <path
       style="opacity:0.95;fill:#e5f5e0;fill-opacity:1;fill-rule:evenodd;stroke:none;stroke-width:0.28222221px;stroke-linecap:butt;stroke-linejoin:miter;stroke-opacity:1"
       id="path4701-62"
       sodipodi:type="arc"
       sodipodi:cx="56.181496"
       sodipodi:cy="83.605362"
       sodipodi:rx="39.951321"
       sodipodi:ry="23.615707"
       sodipodi:start="0.062845641"
       sodipodi:end="0.062629918"
       d="M 96.053947,85.088529 A 39.951321,23.615707 0 0 1 53.674532,107.17453 39.951321,23.615707 0 0 1 16.308774,82.124737 39.951321,23.615707 0 0 1 58.684159,60.036036 39.951321,23.615707 0 0 1 96.054487,85.083445 L 56.181496,83.605362 Z" />
    <path
       style="opacity:0.95;fill:#e5f5e0;fill-opacity:1;fill-rule:evenodd;stroke:none;stroke-width:0.28222221px;stroke-linecap:butt;stroke-linejoin:miter;stroke-opacity:1"
       id="path4701-7"
       sodipodi:type="arc"
       sodipodi:cx="191.11766"
       sodipodi:cy="45.267109"
       sodipodi:rx="38.900105"
       sodipodi:ry="41.409046"
       sodipodi:start="0.062845641"
       sodipodi:end="0.062629918"
       d="M 229.94097,47.867774 A 38.900105,41.409046 0 0 1 188.67666,86.594548 38.900105,41.409046 0 0 1 152.29409,42.670901 38.900105,41.409046 0 0 1 193.55447,3.9393897 38.900105,41.409046 0 0 1 229.9415,47.858859 l -38.82384,-2.59175 z"
       transform="matrix(1,0,-0.13994956,0.99015863,0,0)" />
    <path
       style="opacity:0.95;fill:#e5f5e0;fill-opacity:1;fill-rule:evenodd;stroke:none;stroke-width:0.28222221px;stroke-linecap:butt;stroke-linejoin:miter;stroke-opacity:1"
       id="path4701-5"
       sodipodi:type="arc"
       sodipodi:cx="29.784456"
       sodipodi:cy="171.94846"
       sodipodi:rx="58.523098"
       sodipodi:ry="20.486513"
       sodipodi:start="0.062845641"
       sodipodi:end="0.062629918"
       d="m 88.192022,173.2351 a 58.523098,20.486513 0 0 1 -62.079917,19.1595 58.523098,20.486513 0 0 1 -54.73561,-21.73058 58.523098,20.486513 0 0 1 62.074012,-19.16184 58.523098,20.486513 0 0 1 54.742306,21.72851 l -58.408357,-1.28223 z"
       transform="matrix(0.95664694,-0.29125013,0.18575091,0.98259687,0,0)" />
    <path
       style="opacity:0.95;fill:#e5f5e0;fill-opacity:1;fill-rule:evenodd;stroke:none;stroke-width:0.28222221px;stroke-linecap:butt;stroke-linejoin:miter;stroke-opacity:1"
       id="path4701-35"
       sodipodi:type="arc"
       sodipodi:cx="238.84819"
       sodipodi:cy="110.01343"
       sodipodi:rx="54.273949"
       sodipodi:ry="28.010321"
       sodipodi:start="0.062845641"
       sodipodi:end="0.062629918"
       d="m 293.01499,111.7726 a 54.273949,28.010321 0 0 1 -57.57251,26.19595 54.273949,28.010321 0 0 1 -50.76146,-29.71128 54.273949,28.010321 0 0 1 57.56704,-26.199151 54.273949,28.010321 0 0 1 50.76767,29.708451 l -54.16754,-1.75314 z"
       transform="matrix(0.96186299,0.27353169,-0.34102147,0.94005551,0,0)" />
    <text
       xml:space="preserve"
       style="font-style:normal;font-weight:normal;font-size:12.63991928px;line-height:125%;font-family:sans-serif;letter-spacing:0px;word-spacing:0px;display:inline;fill:#000000;fill-opacity:1;stroke:none;stroke-width:1px;stroke-linecap:butt;stroke-linejoin:miter;stroke-opacity:1"
       x="162.33052"
       y="159.21634"
       id="text4192-4-3"
       sodipodi:linespacing="125%"
       transform="scale(0.97205301,1.0287505)"><tspan
         sodipodi:role="line"
         id="tspan4194-7-8"
         x="162.33052"
         y="159.21634"
         style="font-style:normal;font-variant:normal;font-weight:bold;font-stretch:normal;font-family:'TeX Gyre Heros';-inkscape-font-specification:'TeX Gyre Heros Bold'">Green's</tspan><tspan
         sodipodi:role="line"
         x="162.33052"
         y="175.01624"
         style="font-style:normal;font-variant:normal;font-weight:bold;font-stretch:normal;font-family:'TeX Gyre Heros';-inkscape-font-specification:'TeX Gyre Heros Bold'"
         id="tspan4226-5">   Functions</tspan></text>
    <text
       xml:space="preserve"
       style="font-style:normal;font-weight:normal;font-size:9.68850613px;line-height:125%;font-family:sans-serif;letter-spacing:0px;word-spacing:0px;display:inline;fill:#000000;fill-opacity:1;stroke:none;stroke-width:1px;stroke-linecap:butt;stroke-linejoin:miter;stroke-opacity:1"
       x="146.54712"
       y="35.573261"
       id="text4192-4-10"
       sodipodi:linespacing="125%"
       transform="scale(1.0407483,0.96084712)"><tspan
         sodipodi:role="line"
         id="tspan4194-7-87"
         x="146.54712"
         y="35.573261"
         style="font-style:normal;font-variant:normal;font-weight:bold;font-stretch:normal;font-family:'TeX Gyre Heros';-inkscape-font-specification:'TeX Gyre Heros Bold'">Relativistic</tspan><tspan
         sodipodi:role="line"
         x="146.54712"
         y="47.683895"
         style="font-style:normal;font-variant:normal;font-weight:bold;font-stretch:normal;font-family:'TeX Gyre Heros';-inkscape-font-specification:'TeX Gyre Heros Bold'"
         id="tspan4290">   Quantum</tspan><tspan
         sodipodi:role="line"
         x="146.54712"
         y="59.794525"
         style="font-style:normal;font-variant:normal;font-weight:bold;font-stretch:normal;font-family:'TeX Gyre Heros';-inkscape-font-specification:'TeX Gyre Heros Bold'"
         id="tspan4226-6">      Chemistry</tspan></text>
    <text
       xml:space="preserve"
       style="font-style:normal;font-weight:normal;font-size:11.28888893px;line-height:125%;font-family:sans-serif;letter-spacing:0px;word-spacing:0px;display:inline;fill:#000000;fill-opacity:1;stroke:none;stroke-width:1px;stroke-linecap:butt;stroke-linejoin:miter;stroke-opacity:1"
       x="222.13062"
       y="98.060791"
       id="text4192-0"
       sodipodi:linespacing="125%"><tspan
         sodipodi:role="line"
         id="tspan4194-2"
         x="222.13062"
         y="98.060791"
         style="font-style:normal;font-variant:normal;font-weight:bold;font-stretch:normal;font-family:'TeX Gyre Heros';-inkscape-font-specification:'TeX Gyre Heros Bold'">Wavelet</tspan><tspan
         sodipodi:role="line"
         x="222.13062"
         y="112.17191"
         style="font-style:normal;font-variant:normal;font-weight:bold;font-stretch:normal;font-family:'TeX Gyre Heros';-inkscape-font-specification:'TeX Gyre Heros Bold'"
         id="tspan4222">  Galerkin</tspan><tspan
         sodipodi:role="line"
         x="222.13062"
         y="126.28301"
         style="font-style:normal;font-variant:normal;font-weight:bold;font-stretch:normal;font-family:'TeX Gyre Heros';-inkscape-font-specification:'TeX Gyre Heros Bold'"
         id="tspan4224">     BEM</tspan></text>
    <text
       xml:space="preserve"
       style="font-style:normal;font-weight:normal;font-size:11.28888893px;line-height:125%;font-family:sans-serif;letter-spacing:0px;word-spacing:0px;display:inline;fill:#000000;fill-opacity:1;stroke:none;stroke-width:1px;stroke-linecap:butt;stroke-linejoin:miter;stroke-opacity:1"
       x="30.377762"
       y="158.98914"
       id="text4192-4"
       sodipodi:linespacing="125%"><tspan
         sodipodi:role="line"
         id="tspan4194-7"
         x="30.377762"
         y="158.98914"
         style="font-style:normal;font-variant:normal;font-weight:bold;font-stretch:normal;font-family:'TeX Gyre Heros';-inkscape-font-specification:'TeX Gyre Heros Bold'">Response</tspan><tspan
         sodipodi:role="line"
         x="30.377762"
         y="173.10025"
         style="font-style:normal;font-variant:normal;font-weight:bold;font-stretch:normal;font-family:'TeX Gyre Heros';-inkscape-font-specification:'TeX Gyre Heros Bold'"
         id="tspan4226">    Theory</tspan></text>
    <text
       xml:space="preserve"
       style="font-style:normal;font-weight:normal;font-size:11.28888893px;line-height:125%;font-family:sans-serif;letter-spacing:0px;word-spacing:0px;display:inline;fill:#000000;fill-opacity:1;stroke:none;stroke-width:1px;stroke-linecap:butt;stroke-linejoin:miter;stroke-opacity:1"
       x="19.056589"
       y="86.297089"
       id="text4192-4-1"
       sodipodi:linespacing="125%"><tspan
         sodipodi:role="line"
         x="19.056589"
         y="86.297089"
         style="font-style:normal;font-variant:normal;font-weight:bold;font-stretch:normal;font-family:'TeX Gyre Heros';-inkscape-font-specification:'TeX Gyre Heros Bold'"
         id="tspan4226-3">MBPT and CC</tspan></text>
  </g>
  <g
     inkscape:groupmode="layer"
     id="layer2"
     inkscape:label="foundations">
    <path
       style="display:inline;opacity:0.95;fill:#a1d99b;fill-opacity:1;fill-rule:evenodd;stroke:none;stroke-width:0.28222221px;stroke-linecap:butt;stroke-linejoin:miter;stroke-opacity:1"
       id="path4701"
       sodipodi:type="arc"
       sodipodi:cx="75.951225"
       sodipodi:cy="135.04718"
       sodipodi:rx="45.986122"
       sodipodi:ry="29.682919"
       sodipodi:start="0.062845641"
       sodipodi:end="0.062629918"
       d="m 121.84656,136.91139 a 45.986122,29.682919 0 0 1 -48.780985,27.76021 45.986122,29.682919 0 0 1 -43.01,-31.48544 45.986122,29.682919 0 0 1 48.77635,-27.7636 45.986122,29.682919 0 0 1 43.015265,31.48244 l -45.895965,-1.85782 z"
       transform="matrix(0.97646606,-0.21567118,0.24717015,0.9689721,0,0)" />
    <path
       style="display:inline;opacity:0.95;fill:#31a354;fill-opacity:1;fill-rule:evenodd;stroke:none;stroke-width:0.28222221px;stroke-linecap:butt;stroke-linejoin:miter;stroke-opacity:1"
       id="path4701-3"
       sodipodi:type="arc"
       sodipodi:cx="208.92162"
       sodipodi:cy="22.989975"
       sodipodi:rx="38.732346"
       sodipodi:ry="32.80891"
       sodipodi:start="0.062845641"
       sodipodi:end="0.062629918"
       d="m 247.5775,25.050515 a 38.732346,32.80891 0 0 1 -41.08636,30.683712 38.732346,32.80891 0 0 1 -36.22567,-34.80126 38.732346,32.80891 0 0 1 41.08245,-30.687466 38.732346,32.80891 0 0 1 36.2301,34.79795 l -38.6564,-2.053476 z"
       transform="matrix(0.90564733,0.42403175,-0.33257784,0.94307582,0,0)" />
    <text
       xml:space="preserve"
       style="display:inline;font-style:normal;font-weight:normal;font-size:11.28888893px;line-height:125%;font-family:sans-serif;letter-spacing:0px;word-spacing:0px;fill:#000000;fill-opacity:1;stroke:none;stroke-width:1px;stroke-linecap:butt;stroke-linejoin:miter;stroke-opacity:1"
       x="151.13396"
       y="113.99168"
       id="text4192"
       sodipodi:linespacing="125%"><tspan
         sodipodi:role="line"
         id="tspan4194"
         x="151.13396"
         y="113.99168"
         style="font-style:normal;font-variant:normal;font-weight:bold;font-stretch:normal;font-family:'TeX Gyre Heros';-inkscape-font-specification:'TeX Gyre Heros Bold'">PCMSolver</tspan></text>
    <text
       xml:space="preserve"
       style="display:inline;font-style:normal;font-weight:normal;font-size:11.28888893px;line-height:125%;font-family:sans-serif;letter-spacing:0px;word-spacing:0px;fill:#000000;fill-opacity:1;stroke:none;stroke-width:1px;stroke-linecap:butt;stroke-linejoin:miter;stroke-opacity:1"
       x="69.434578"
       y="112.14548"
       id="text4192-4-6"
       sodipodi:linespacing="125%"><tspan
         sodipodi:role="line"
         id="tspan4194-7-5"
         x="69.434578"
         y="112.14548"
         style="font-style:normal;font-variant:normal;font-weight:bold;font-stretch:normal;font-family:'TeX Gyre Heros';-inkscape-font-specification:'TeX Gyre Heros Bold'">Variational</tspan><tspan
         sodipodi:role="line"
         x="69.434578"
         y="126.25659"
         style="font-style:normal;font-variant:normal;font-weight:bold;font-stretch:normal;font-family:'TeX Gyre Heros';-inkscape-font-specification:'TeX Gyre Heros Bold'"
         id="tspan4226-7">   Formulation</tspan></text>
  </g>
  <g
     inkscape:groupmode="layer"
     id="layer5"
     inkscape:label="lines"
     style="display:inline">
    <path
       style="display:inline;fill:none;fill-rule:evenodd;stroke:#99d8c9;stroke-width:1;stroke-linecap:butt;stroke-linejoin:miter;stroke-miterlimit:4;stroke-dasharray:none;stroke-opacity:1"
       d="m 236.14268,138.2872 c -2.84707,-1.12917 -5.52799,-2.6534 -8.17782,-4.18937 -1.72948,-1.00249 -3.40106,-2.10746 -5.02545,-3.27255 -1.71054,-1.22688 -4.96087,-3.9077 -4.96087,-3.9077 0,0 -0.96627,4.02003 -1.92156,5.82924 -0.69797,1.3219 -1.68674,2.48629 -2.72533,3.56142 -1.43153,1.48189 -3.10557,2.71773 -4.77607,3.92384 -0.91221,0.65862 -2.85452,1.80135 -2.85452,1.80135 0,0 3.30802,0.9229 4.92857,1.48736 2.45307,0.85444 4.88982,1.77457 7.24485,2.87066 2.22433,1.03526 4.38298,2.21695 6.48051,3.48965"
       id="path5129"
       inkscape:connector-curvature="0"
       sodipodi:nodetypes="caacaaacaac" />
    <path
       style="display:inline;fill:none;fill-rule:evenodd;stroke:#99d8c9;stroke-width:1;stroke-linecap:butt;stroke-linejoin:miter;stroke-miterlimit:4;stroke-dasharray:none;stroke-opacity:1"
       d="m 217.85833,65.165996 c -2.29402,3.102471 -4.55096,6.292013 -7.37223,8.924178 -3.18602,2.972465 -7.82031,7.148809 -10.63043,7.60726 0,0 2.95198,1.746084 4.29344,2.806074 1.60783,1.270483 2.62546,2.162635 4.46209,4.22885 3.43282,-5.755301 7.71429,-7.217462 12.39051,-9.503695 3.9018,-1.907613 8.32418,-2.570869 12.6076,-3.288705"
       id="path5127"
       inkscape:connector-curvature="0"
       sodipodi:nodetypes="cacacac" />
    <path
       style="display:inline;fill:none;fill-rule:evenodd;stroke:#99d8c9;stroke-width:1;stroke-linecap:butt;stroke-linejoin:miter;stroke-miterlimit:4;stroke-dasharray:none;stroke-opacity:1"
       d="m 154.78803,80.177778 c 0.70878,-0.463735 2.38804,-0.868376 2.38804,-0.868376 0,0 -2.08829,-1.818765 -3.03932,-2.822222 -1.55514,-1.640881 -3.14203,-3.294189 -4.34188,-5.210257 -1.30638,-2.086185 -2.20297,-4.414895 -3.03932,-6.729916 -0.73968,-2.047445 -1.35765,-4.152027 -1.73675,-6.295726 -0.4678,-2.645234 -0.64984,-5.3462 -0.65128,-8.032479"
       id="path5125"
       inkscape:connector-curvature="0"
       sodipodi:nodetypes="ccaaaac" />
    <path
       style="display:inline;fill:none;fill-rule:evenodd;stroke:#99d8c9;stroke-width:1;stroke-linecap:butt;stroke-linejoin:miter;stroke-miterlimit:4;stroke-dasharray:none;stroke-opacity:1"
       d="m 82.208027,63.442013 c 4.970473,2.824708 9.918358,6.446224 12.859627,11.348623 1.64549,2.742643 2.216005,9.335783 2.216005,9.335783 0,0 4.704581,-1.227573 7.107001,-1.561348"
       id="path5121"
       inkscape:connector-curvature="0"
       sodipodi:nodetypes="cacc" />
    <path
       style="display:inline;fill:none;fill-rule:evenodd;stroke:#99d8c9;stroke-width:1;stroke-linecap:butt;stroke-linejoin:miter;stroke-miterlimit:4;stroke-dasharray:none;stroke-opacity:1"
       d="m 46.582443,107.73595 c 5.593736,0.6782 16.897661,0.46648 16.897661,0.46648 0,0 -2.738561,5.2772 -3.051345,8.1662 -0.421185,3.89023 0.118013,8.02464 1.660129,11.62091 1.055872,2.46233 2.968767,4.53895 4.980393,6.3085 0.484549,0.42624 1.66013,0.99608 1.66013,0.99608 0,0 -8.904821,2.02719 -13.281045,3.32026"
       id="path5119"
       inkscape:connector-curvature="0"
       sodipodi:nodetypes="ccaaacc" />
    <path
       style="display:inline;fill:none;fill-rule:evenodd;stroke:#99d8c9;stroke-width:1;stroke-linecap:butt;stroke-linejoin:miter;stroke-miterlimit:4;stroke-dasharray:none;stroke-opacity:1"
       d="m 109.84957,158.33162 c 1.72681,-1.68094 3.46724,-3.40389 4.77607,-5.42735 0.94978,-1.46837 1.68585,-3.09593 2.17094,-4.77607 0.4457,-1.5437 0.65128,-4.77606 0.65128,-4.77606 0,0 4.53717,-0.98881 6.72992,-1.73676"
       id="path5123"
       inkscape:connector-curvature="0"
       sodipodi:nodetypes="caacc" />
    <path
       style="display:inline;fill:none;fill-rule:evenodd;stroke:#99d8c9;stroke-width:1;stroke-linecap:butt;stroke-linejoin:miter;stroke-miterlimit:4;stroke-dasharray:none;stroke-opacity:1"
       d="m 158.68675,134.4746 c 1.85194,1.53769 6.08761,3.88437 6.08761,3.88437 0,0 -4.51505,0.57782 -6.72992,1.08547 -1.70432,0.39063 -3.40916,0.83649 -5.02545,1.50351 -2.41744,0.99764 -4.7504,2.23877 -6.91472,3.70675 -1.4876,1.00898 -2.98738,2.08163 -4.12478,3.4735 -1.72125,2.10635 -3.26776,4.52027 -3.9077,7.16411 -0.6982,2.88454 -0.45282,6.00962 0.2171,8.90085 0.54739,2.36241 1.6853,4.59793 3.03931,6.60971"
       id="path5131"
       inkscape:connector-curvature="0"
       sodipodi:nodetypes="ccaaaaaac" />
  </g>
  <g
     inkscape:groupmode="layer"
     id="layer6"
     inkscape:label="dashed"
     style="display:inline">
    <path
       sodipodi:nodetypes="caaacaaacaaac"
       inkscape:connector-curvature="0"
       id="path6663"
       d="m 248.78257,141.94551 c 0,0 -8.56264,-2.04125 -12.63989,-3.65831 -2.84707,-1.12917 -5.52799,-2.6534 -8.17782,-4.18937 -1.72948,-1.00249 -3.40106,-2.10746 -5.02545,-3.27255 -1.71054,-1.22688 -4.96087,-3.9077 -4.96087,-3.9077 0,0 -0.96627,4.02003 -1.92156,5.82924 -0.69797,1.3219 -1.68674,2.48629 -2.72533,3.56142 -1.43153,1.48189 -3.10557,2.71773 -4.77607,3.92384 -0.91221,0.65862 -2.85452,1.80135 -2.85452,1.80135 0,0 3.30802,0.9229 4.92857,1.48736 2.45307,0.85444 4.88982,1.77457 7.24485,2.87066 2.22433,1.03526 4.38298,2.21695 6.48051,3.48965 2.53194,1.53629 7.34892,4.99316 7.34892,4.99316"
       style="display:inline;fill:none;fill-rule:evenodd;stroke:#99d8c9;stroke-width:0.80000001;stroke-linecap:butt;stroke-linejoin:miter;stroke-miterlimit:4;stroke-dasharray:1.60000001, 1.60000001;stroke-dashoffset:0;stroke-opacity:1" />
    <path
       sodipodi:nodetypes="caacacaac"
       inkscape:connector-curvature="0"
       id="path6666"
       d="m 221.96697,58.934858 c 0,0 -2.62947,4.230681 -4.10864,6.231138 -2.29402,3.102471 -4.55096,6.292013 -7.37223,8.924178 -3.18602,2.972465 -7.82031,7.148809 -10.63043,7.60726 0,0 2.95198,1.746084 4.29344,2.806074 1.60783,1.270483 2.62546,2.162635 4.46209,4.22885 3.43282,-5.755301 7.71429,-7.217462 12.39051,-9.503695 3.9018,-1.907613 8.32418,-2.570869 12.6076,-3.288705 2.78634,-0.466946 8.45052,-0.651281 8.45052,-0.651281"
       style="display:inline;fill:none;fill-rule:evenodd;stroke:#99d8c9;stroke-width:0.80000001;stroke-linecap:butt;stroke-linejoin:miter;stroke-miterlimit:4;stroke-dasharray:1.60000005, 1.60000005;stroke-dashoffset:0;stroke-opacity:1" />
    <path
       sodipodi:nodetypes="cacaaaaac"
       inkscape:connector-curvature="0"
       id="path6669"
       d="m 148.87806,86.385588 c 0,0 3.51917,-4.643581 5.90997,-6.20781 0.70878,-0.463735 2.38804,-0.868376 2.38804,-0.868376 0,0 -2.08829,-1.818765 -3.03932,-2.822222 -1.55514,-1.640881 -3.14203,-3.294189 -4.34188,-5.210257 -1.30638,-2.086185 -2.20297,-4.414895 -3.03932,-6.729916 -0.73968,-2.047445 -1.35765,-4.152027 -1.73675,-6.295726 -0.4678,-2.645234 -0.64984,-5.3462 -0.65128,-8.032479 -9.7e-4,-1.814896 0.43419,-5.42735 0.43419,-5.42735"
       style="display:inline;fill:none;fill-rule:evenodd;stroke:#99d8c9;stroke-width:0.80000001;stroke-linecap:butt;stroke-linejoin:miter;stroke-miterlimit:4;stroke-dasharray:1.60000001, 1.60000001;stroke-dashoffset:0;stroke-opacity:1" />
    <path
       sodipodi:nodetypes="caacac"
       inkscape:connector-curvature="0"
       id="path6672"
       d="m 68.029686,58.892431 c 0,0 9.863037,2.097205 14.178341,4.549582 4.970473,2.824708 9.918358,6.446224 12.859627,11.348623 1.64549,2.742643 2.216005,9.335783 2.216005,9.335783 0,0 4.704581,-1.227573 7.107001,-1.561348 4.21124,-0.585081 12.73225,-0.762837 12.73225,-0.762837"
       style="display:inline;fill:none;fill-rule:evenodd;stroke:#99d8c9;stroke-width:0.80000001;stroke-linecap:butt;stroke-linejoin:miter;stroke-miterlimit:4;stroke-dasharray:1.60000001, 1.60000001;stroke-dashoffset:0;stroke-opacity:1" />
    <path
       sodipodi:nodetypes="cacaaacac"
       inkscape:connector-curvature="0"
       id="path6675"
       d="m 35.910958,105.41999 c 0,0 7.05798,1.87785 10.671485,2.31596 5.593736,0.6782 16.897661,0.46648 16.897661,0.46648 0,0 -2.738561,5.2772 -3.051345,8.1662 -0.421185,3.89023 0.118013,8.02464 1.660129,11.62091 1.055872,2.46233 2.968767,4.53895 4.980393,6.3085 0.484549,0.42624 1.66013,0.99608 1.66013,0.99608 0,0 -8.904821,2.02719 -13.281045,3.32026 -4.262773,1.25955 -12.616993,4.31634 -12.616993,4.31634"
       style="display:inline;fill:none;fill-rule:evenodd;stroke:#99d8c9;stroke-width:0.80000001;stroke-linecap:butt;stroke-linejoin:miter;stroke-miterlimit:4;stroke-dasharray:1.60000001, 1.60000001;stroke-dashoffset:0;stroke-opacity:1" />
    <path
       sodipodi:nodetypes="caaacac"
       inkscape:connector-curvature="0"
       id="path6678"
       d="m 104.63932,162.6735 c 0,0 3.59029,-2.76495 5.21025,-4.34188 1.72681,-1.68094 3.46724,-3.40389 4.77607,-5.42735 0.94978,-1.46837 1.68585,-3.09593 2.17094,-4.77607 0.4457,-1.5437 0.65128,-4.77606 0.65128,-4.77606 0,0 4.53717,-0.98881 6.72992,-1.73676 2.60802,-0.88959 7.59829,-3.25641 7.59829,-3.25641"
       style="display:inline;fill:none;fill-rule:evenodd;stroke:#99d8c9;stroke-width:0.80000001;stroke-linecap:butt;stroke-linejoin:miter;stroke-miterlimit:4;stroke-dasharray:1.60000001, 1.60000001;stroke-dashoffset:0;stroke-opacity:1" />
    <path
       sodipodi:nodetypes="cacaaaaaaac"
       inkscape:connector-curvature="0"
       id="path6681"
       d="m 154.02372,129.49759 c 0,0 2.91397,3.52475 4.66303,4.97701 1.85194,1.53769 6.08761,3.88437 6.08761,3.88437 0,0 -4.51505,0.57782 -6.72992,1.08547 -1.70432,0.39063 -3.40916,0.83649 -5.02545,1.50351 -2.41744,0.99764 -4.7504,2.23877 -6.91472,3.70675 -1.4876,1.00898 -2.98738,2.08163 -4.12478,3.4735 -1.72125,2.10635 -3.26776,4.52027 -3.9077,7.16411 -0.6982,2.88454 -0.45282,6.00962 0.2171,8.90085 0.54739,2.36241 1.6853,4.59793 3.03931,6.60971 1.3383,1.98844 4.9214,5.24255 4.9214,5.24255"
       style="display:inline;fill:none;fill-rule:evenodd;stroke:#99d8c9;stroke-width:0.80000001;stroke-linecap:butt;stroke-linejoin:miter;stroke-miterlimit:4;stroke-dasharray:1.60000001, 1.60000001;stroke-dashoffset:0;stroke-opacity:1" />
  </g>
</svg>
