<?xml version="1.0" encoding="UTF-8" standalone="no"?>
<!-- Created with Inkscape (http://www.inkscape.org/) -->

<svg
   xmlns:dc="http://purl.org/dc/elements/1.1/"
   xmlns:cc="http://creativecommons.org/ns#"
   xmlns:rdf="http://www.w3.org/1999/02/22-rdf-syntax-ns#"
   xmlns:svg="http://www.w3.org/2000/svg"
   xmlns="http://www.w3.org/2000/svg"
   xmlns:sodipodi="http://sodipodi.sourceforge.net/DTD/sodipodi-0.dtd"
   xmlns:inkscape="http://www.inkscape.org/namespaces/inkscape"
   width="375.97665mm"
   height="80.556419mm"
   viewBox="0 0 1332.2007 285.43613"
   id="svg2"
   version="1.1"
   inkscape:version="0.91 r13725"
   sodipodi:docname="pted-cc.svg"
   inkscape:export-filename="/home/roberto/Documents/Presentations/phd-forsvaring/images/pted-cc.png"
   inkscape:export-xdpi="300"
   inkscape:export-ydpi="300">
  <sodipodi:namedview
     id="base"
     pagecolor="#ffffff"
     bordercolor="#666666"
     borderopacity="1.0"
     inkscape:pageopacity="0.0"
     inkscape:pageshadow="2"
     inkscape:zoom="1.14"
     inkscape:cx="484.0454"
     inkscape:cy="148.98207"
     inkscape:document-units="px"
     inkscape:current-layer="layer1"
     showgrid="false"
     inkscape:window-width="2560"
     inkscape:window-height="1376"
     inkscape:window-x="0"
     inkscape:window-y="27"
     inkscape:window-maximized="1"
     fit-margin-top="0"
     fit-margin-left="0"
     fit-margin-right="0"
     fit-margin-bottom="0" />
  <defs
     id="defs4">
    <marker
       inkscape:stockid="Arrow2Send"
       orient="auto"
       refY="0"
       refX="0"
       id="marker10873"
       style="overflow:visible"
       inkscape:isstock="true">
      <path
         inkscape:connector-curvature="0"
         id="path10875"
         style="fill:#000000;fill-opacity:1;fill-rule:evenodd;stroke:#000000;stroke-width:0.625;stroke-linejoin:round;stroke-opacity:1"
         d="M 8.7185878,4.0337352 -2.2072895,0.01601326 8.7185884,-4.0017078 c -1.7454984,2.3720609 -1.7354408,5.6174519 -6e-7,8.035443 z"
         transform="matrix(-0.3,0,0,-0.3,0.69,0)" />
    </marker>
    <marker
       inkscape:isstock="true"
       style="overflow:visible"
       id="marker6535"
       refX="0"
       refY="0"
       orient="auto"
       inkscape:stockid="Arrow2Send"
       inkscape:collect="always">
      <path
         transform="matrix(-0.3,0,0,-0.3,0.69,0)"
         d="M 8.7185878,4.0337352 -2.2072895,0.01601326 8.7185884,-4.0017078 c -1.7454984,2.3720609 -1.7354408,5.6174519 -6e-7,8.035443 z"
         style="fill:#000000;fill-opacity:1;fill-rule:evenodd;stroke:#000000;stroke-width:0.625;stroke-linejoin:round;stroke-opacity:1"
         id="path6537"
         inkscape:connector-curvature="0" />
    </marker>
    <marker
       inkscape:stockid="Arrow2Send"
       orient="auto"
       refY="0"
       refX="0"
       id="Arrow2Send"
       style="overflow:visible"
       inkscape:isstock="true">
      <path
         id="path5075"
         style="fill:#000000;fill-opacity:1;fill-rule:evenodd;stroke:#000000;stroke-width:0.625;stroke-linejoin:round;stroke-opacity:1"
         d="M 8.7185878,4.0337352 -2.2072895,0.01601326 8.7185884,-4.0017078 c -1.7454984,2.3720609 -1.7354408,5.6174519 -6e-7,8.035443 z"
         transform="matrix(-0.3,0,0,-0.3,0.69,0)"
         inkscape:connector-curvature="0" />
    </marker>
    <marker
       inkscape:stockid="Arrow2Send"
       orient="auto"
       refY="0"
       refX="0"
       id="Arrow2Send-3-3"
       style="overflow:visible"
       inkscape:isstock="true">
      <path
         inkscape:connector-curvature="0"
         id="path5075-9-9"
         style="fill:#000000;fill-opacity:1;fill-rule:evenodd;stroke:#000000;stroke-width:0.625;stroke-linejoin:round;stroke-opacity:1"
         d="M 8.7185878,4.0337352 -2.2072895,0.01601326 8.7185884,-4.0017078 c -1.7454984,2.3720609 -1.7354408,5.6174519 -6e-7,8.035443 z"
         transform="matrix(-0.3,0,0,-0.3,0.69,0)" />
    </marker>
    <marker
       inkscape:stockid="Arrow2Send"
       orient="auto"
       refY="0"
       refX="0"
       id="Arrow2Send-3-3-4"
       style="overflow:visible"
       inkscape:isstock="true">
      <path
         inkscape:connector-curvature="0"
         id="path5075-9-9-1"
         style="fill:#000000;fill-opacity:1;fill-rule:evenodd;stroke:#000000;stroke-width:0.625;stroke-linejoin:round;stroke-opacity:1"
         d="M 8.7185878,4.0337352 -2.2072895,0.01601326 8.7185884,-4.0017078 c -1.7454984,2.3720609 -1.7354408,5.6174519 -6e-7,8.035443 z"
         transform="matrix(-0.3,0,0,-0.3,0.69,0)" />
    </marker>
  </defs>
  <metadata
     id="metadata7">
    <rdf:RDF>
      <cc:Work
         rdf:about="">
        <dc:format>image/svg+xml</dc:format>
        <dc:type
           rdf:resource="http://purl.org/dc/dcmitype/StillImage" />
        <dc:title />
      </cc:Work>
    </rdf:RDF>
  </metadata>
  <g
     inkscape:label="boxes"
     inkscape:groupmode="layer"
     id="layer1"
     transform="translate(239.0172,-290.59991)"
     style="display:inline">
    <rect
       style="opacity:0.5;fill:#00776b;fill-opacity:1;stroke:none;stroke-width:5;stroke-linecap:butt;stroke-linejoin:miter;stroke-miterlimit:4;stroke-dasharray:none;stroke-dashoffset:0;stroke-opacity:1"
       id="rect4138-9"
       width="221.08981"
       height="102.43594"
       x="109.90205"
       y="314.66074"
       rx="33.903"
       ry="33.903" />
    <rect
       style="opacity:0.5;fill:#00776b;fill-opacity:1;stroke:none;stroke-width:5;stroke-linecap:butt;stroke-linejoin:miter;stroke-miterlimit:4;stroke-dasharray:none;stroke-dashoffset:0;stroke-opacity:1"
       id="rect4138"
       width="221.08981"
       height="102.43594"
       x="-239.0172"
       y="314.66074"
       rx="33.903"
       ry="33.903" />
    <rect
       style="opacity:0.9;fill:#ffff00;fill-opacity:1;stroke:none;stroke-width:5;stroke-linecap:butt;stroke-linejoin:miter;stroke-miterlimit:4;stroke-dasharray:none;stroke-dashoffset:0;stroke-opacity:1"
       id="rect4138-93"
       width="221.08981"
       height="102.43594"
       x="460.87277"
       y="314.66074"
       rx="33.903"
       ry="33.903" />
    <path
       sodipodi:type="star"
       style="opacity:0.5;fill:#ff0000;fill-opacity:1;stroke:none;stroke-width:5;stroke-linecap:butt;stroke-linejoin:miter;stroke-miterlimit:4;stroke-dasharray:none;stroke-dashoffset:0;stroke-opacity:1"
       id="path5014"
       sodipodi:sides="4"
       sodipodi:cx="822.09332"
       sodipodi:cy="366.16959"
       sodipodi:r1="75.569672"
       sodipodi:r2="53.435822"
       sodipodi:arg1="1.5707963"
       sodipodi:arg2="2.3561945"
       inkscape:flatsided="true"
       inkscape:rounded="0"
       inkscape:randomized="0"
       d="m 822.09332,441.73926 -75.56967,-75.56967 75.56967,-75.56968 75.56967,75.56967 z" />
    <rect
       style="opacity:0.5;fill:#00776b;fill-opacity:1;stroke:none;stroke-width:5;stroke-linecap:butt;stroke-linejoin:miter;stroke-miterlimit:4;stroke-dasharray:none;stroke-dashoffset:0;stroke-opacity:1"
       id="rect4138-9-2"
       width="131.19081"
       height="102.43594"
       x="961.99274"
       y="314.66074"
       rx="33.903"
       ry="33.903" />
    <path
       style="display:inline;fill:none;fill-rule:evenodd;stroke:#000000;stroke-width:2.5;stroke-linecap:butt;stroke-linejoin:miter;stroke-miterlimit:4;stroke-dasharray:none;stroke-opacity:1;marker-end:url(#Arrow2Send)"
       d="m -17.322131,368.92536 127.160191,0"
       id="path5036"
       inkscape:connector-curvature="0" />
    <path
       style="display:inline;fill:none;fill-rule:evenodd;stroke:#000000;stroke-width:2.5;stroke-linecap:butt;stroke-linejoin:miter;stroke-miterlimit:4;stroke-dasharray:none;stroke-opacity:1;marker-end:url(#marker10873)"
       d="m 330.26573,366.1816 127.16019,0"
       id="path5036-4"
       inkscape:connector-curvature="0" />
    <path
       style="display:inline;fill:none;fill-rule:evenodd;stroke:#000000;stroke-width:2.5;stroke-linecap:butt;stroke-linejoin:miter;stroke-miterlimit:4;stroke-dasharray:none;stroke-opacity:1;marker-end:url(#Arrow2Send-3-3)"
       d="m 681.4875,366.1816 62.40683,0"
       id="path5036-4-0"
       inkscape:connector-curvature="0" />
    <path
       style="display:inline;fill:none;fill-rule:evenodd;stroke:#000000;stroke-width:2.5;stroke-linecap:butt;stroke-linejoin:miter;stroke-miterlimit:4;stroke-dasharray:none;stroke-opacity:1;marker-end:url(#Arrow2Send-3-3-4)"
       d="m 897.08539,366.54375 62.4068,0"
       id="path5036-4-0-7"
       inkscape:connector-curvature="0" />
    <path
       style="display:inline;fill:none;fill-rule:evenodd;stroke:#000000;stroke-width:2.43503857;stroke-linecap:butt;stroke-linejoin:miter;stroke-miterlimit:4;stroke-dasharray:none;stroke-opacity:1;marker-end:url(#marker6535)"
       d="m 821.7591,439.65405 0,83.46756 -967.10286,0 0,-102.0178"
       id="path10590"
       inkscape:connector-curvature="0"
       sodipodi:nodetypes="cccc" />
  </g>
  <g
     inkscape:groupmode="layer"
     id="layer2"
     inkscape:label="captions"
     transform="translate(239.0172,-290.59991)"
     style="display:inline">
    <text
       xml:space="preserve"
       style="font-style:normal;font-weight:normal;font-size:21.29232597px;line-height:125%;font-family:sans-serif;letter-spacing:0px;word-spacing:0px;fill:#000000;fill-opacity:1;stroke:none;stroke-width:1px;stroke-linecap:butt;stroke-linejoin:miter;stroke-opacity:1"
       x="118.40132"
       y="343.91632"
       id="text4162-4"
       sodipodi:linespacing="125%"><tspan
         sodipodi:role="line"
         x="118.40132"
         y="343.91632"
         style="font-style:normal;font-variant:normal;font-weight:bold;font-stretch:normal;font-family:'TeX Gyre Heros';-inkscape-font-specification:'TeX Gyre Heros Bold'"
         id="tspan4967">Solve for multipliers</tspan></text>
    <text
       xml:space="preserve"
       style="font-style:normal;font-weight:normal;font-size:21.29232597px;line-height:125%;font-family:sans-serif;letter-spacing:0px;word-spacing:0px;fill:#000000;fill-opacity:1;stroke:none;stroke-width:1px;stroke-linecap:butt;stroke-linejoin:miter;stroke-opacity:1"
       x="463.81375"
       y="342.73526"
       id="text4162-8"
       sodipodi:linespacing="125%"><tspan
         sodipodi:role="line"
         id="tspan4164-3"
         x="463.81375"
         y="342.73526"
         style="font-style:normal;font-variant:normal;font-weight:bold;font-stretch:normal;font-family:'TeX Gyre Heros';-inkscape-font-specification:'TeX Gyre Heros Bold'">Solve for polarization</tspan></text>
    <text
       xml:space="preserve"
       style="font-style:normal;font-weight:normal;font-size:21.29232597px;line-height:125%;font-family:sans-serif;letter-spacing:0px;word-spacing:0px;fill:#000000;fill-opacity:1;stroke:none;stroke-width:1px;stroke-linecap:butt;stroke-linejoin:miter;stroke-opacity:1"
       x="822.25653"
       y="358.30206"
       id="text4162-8-2"
       sodipodi:linespacing="125%"><tspan
         sodipodi:role="line"
         id="tspan4164-3-9"
         x="822.25653"
         y="358.30206"
         style="font-style:normal;font-variant:normal;font-weight:bold;font-stretch:normal;font-family:'TeX Gyre Heros';-inkscape-font-specification:'TeX Gyre Heros Bold';text-align:center;text-anchor:middle">Energy</tspan><tspan
         sodipodi:role="line"
         x="822.25653"
         y="384.91748"
         style="font-style:normal;font-variant:normal;font-weight:bold;font-stretch:normal;font-family:'TeX Gyre Heros';-inkscape-font-specification:'TeX Gyre Heros Bold';text-align:center;text-anchor:middle"
         id="tspan5034">Converged?</tspan></text>
    <text
       xml:space="preserve"
       style="font-style:normal;font-weight:normal;font-size:21.29232597px;line-height:125%;font-family:sans-serif;letter-spacing:0px;word-spacing:0px;fill:#000000;fill-opacity:1;stroke:none;stroke-width:1px;stroke-linecap:butt;stroke-linejoin:miter;stroke-opacity:1"
       x="31.448164"
       y="405.28494"
       id="text4162-4-9"
       sodipodi:linespacing="125%"><tspan
         sodipodi:role="line"
         x="31.448164"
         y="405.28494"
         style="font-style:normal;font-variant:normal;font-weight:bold;font-stretch:normal;font-family:'TeX Gyre Heros';-inkscape-font-specification:'TeX Gyre Heros Bold'"
         id="tspan4967-5">and</tspan></text>
    <text
       xml:space="preserve"
       style="font-style:normal;font-weight:normal;font-size:21.29232597px;line-height:125%;font-family:sans-serif;letter-spacing:0px;word-spacing:0px;fill:#000000;fill-opacity:1;stroke:none;stroke-width:1px;stroke-linecap:butt;stroke-linejoin:miter;stroke-opacity:1"
       x="359.06302"
       y="356.64975"
       id="text4162-4-9-5"
       sodipodi:linespacing="125%"><tspan
         sodipodi:role="line"
         x="359.06302"
         y="356.64975"
         style="font-style:normal;font-variant:normal;font-weight:bold;font-stretch:normal;font-family:'TeX Gyre Heros';-inkscape-font-specification:'TeX Gyre Heros Bold'"
         id="tspan4967-5-7">Update</tspan></text>
    <text
       xml:space="preserve"
       style="font-style:normal;font-weight:normal;font-size:21.29232597px;line-height:125%;font-family:sans-serif;letter-spacing:0px;word-spacing:0px;fill:#000000;fill-opacity:1;stroke:none;stroke-width:1px;stroke-linecap:butt;stroke-linejoin:miter;stroke-opacity:1"
       x="988.0874"
       y="374.00516"
       id="text4162-8-9"
       sodipodi:linespacing="125%"><tspan
         sodipodi:role="line"
         id="tspan4164-3-0"
         x="988.0874"
         y="374.00516"
         style="font-style:normal;font-variant:normal;font-weight:bold;font-stretch:normal;font-family:'TeX Gyre Heros';-inkscape-font-specification:'TeX Gyre Heros Bold'">Finalize</tspan></text>
    <text
       xml:space="preserve"
       style="font-style:normal;font-weight:normal;font-size:21.29232597px;line-height:125%;font-family:sans-serif;letter-spacing:0px;word-spacing:0px;fill:#000000;fill-opacity:1;stroke:none;stroke-width:1px;stroke-linecap:butt;stroke-linejoin:miter;stroke-opacity:1"
       x="311.56763"
       y="509.85104"
       id="text4162-4-9-5-5"
       sodipodi:linespacing="125%"><tspan
         sodipodi:role="line"
         x="311.56763"
         y="509.85104"
         style="font-style:normal;font-variant:normal;font-weight:bold;font-stretch:normal;font-family:'TeX Gyre Heros';-inkscape-font-specification:'TeX Gyre Heros Bold'"
         id="tspan4967-5-7-0">Update</tspan></text>
    <text
       xml:space="preserve"
       style="font-style:normal;font-weight:normal;font-size:21.29232597px;line-height:125%;font-family:sans-serif;letter-spacing:0px;word-spacing:0px;fill:#000000;fill-opacity:1;stroke:none;stroke-width:1px;stroke-linecap:butt;stroke-linejoin:miter;stroke-opacity:1"
       x="-232.90915"
       y="343.91632"
       id="text4162"
       sodipodi:linespacing="125%"><tspan
         sodipodi:role="line"
         id="tspan4164"
         x="-232.90915"
         y="343.91632"
         style="font-style:normal;font-variant:normal;font-weight:bold;font-stretch:normal;font-family:'TeX Gyre Heros';-inkscape-font-specification:'TeX Gyre Heros Bold'">Solve for amplitudes</tspan></text>
    <g
       id="g4900"
       transform="matrix(0.75,0,0,0.75,-306.29937,196.92105)">
      <g
         id="g4187"
         transform="translate(-89.257049,-103.63402)">
        <g
           word-spacing="normal"
           letter-spacing="normal"
           font-size-adjust="none"
           font-stretch="normal"
           font-weight="normal"
           font-variant="normal"
           font-style="normal"
           stroke-miterlimit="10.433"
           xml:space="preserve"
           transform="matrix(1.0629921,0,0,-1.0629921,-186.02362,789.27165)"
           id="content"
           style="font-style:normal;font-variant:normal;font-weight:normal;font-stretch:normal;letter-spacing:normal;word-spacing:normal;text-anchor:start;fill:none;fill-opacity:1;fill-rule:evenodd;stroke:#000000;stroke-linecap:butt;stroke-linejoin:miter;stroke-miterlimit:10.43299961;stroke-dasharray:none;stroke-dashoffset:0;stroke-opacity:1"><path
             id="path4190"
             d="m 469.61,428.03 -3.48,0 1.55,6.42 -0.64,0 c -2.05,-4.33 -5.1,-6.17 -8.83,-6.88 l -0.25,-1.45 3.84,0 -4.05,-15.94 c -0.14,-0.54 -0.23,-1.18 -0.23,-1.84 0,-1.34 0.39,-2.59 1.94,-2.59 2.93,0 5.42,3.79 6.62,5.32 l -0.64,0.57 c -1.84,-2.5 -3,-2.6 -3,-2.6 -0.64,0 -0.8,0.3 -0.8,0.6 0,0.15 0.05,0.4 0.11,0.54 l 3.88,15.94 3.48,0 z"
             inkscape:connector-curvature="0"
             style="fill:#0000ff;fill-opacity:1;stroke-width:0" /><path
             id="path4192"
             d="m 491.59,409.67 -2.91,0 -0.59,-2.64 c -0.7,-3.09 -5.38,-11.15 -7.34,-11.15 -1.5,0 -2.02,0.67 -2.02,1.68 0,0.33 0.08,0.67 0.14,1 l 2.66,11.11 -2.96,0 -4.65,-18.53 c -0.56,-2.26 -1.16,-3.5 -1.67,-4.25 l 2.75,0 c 0.86,0.97 1.12,2.23 2.46,7.53 0.19,-0.51 0.9,-0.92 1.54,-0.92 1.7,0 3.61,1.67 7.23,7.12 -0.72,-2.87 -1.23,-5.34 -1.23,-6.39 0,-1.03 0.43,-1.51 1.53,-1.51 1.75,0 4.31,2.31 4.87,3.95 l -0.56,0.22 c -0.44,-0.78 -1.27,-1.8 -2.13,-1.8 -0.43,0 -0.62,0.24 -0.62,0.53 0,0.38 0.14,0.86 0.3,1.46 z"
             inkscape:connector-curvature="0"
             style="fill:#0000ff;fill-opacity:1;stroke-width:0" /><path
             id="path4194"
             d="m 506.52,397.11 -2.41,0 -0.22,-1.16 -0.08,0 c -0.06,0.78 -0.72,1.55 -2.15,1.55 l 0.26,-0.86 c 1.08,0 1.47,-0.92 1.47,-2.2 l 0,0 c 0,-3.38 -1.8,-6.77 -3.67,-8.11 -0.53,-0.39 -1.22,-0.52 -1.72,-0.52 -1.28,0 -1.56,1.08 -1.56,1.89 0,2.61 1.76,6.58 3.67,8.13 0.59,0.48 1.19,0.81 1.81,0.81 l -0.26,0.86 c -0.83,0 -1.78,-0.39 -2.71,-1.02 -2.65,-1.71 -5.04,-5.39 -5.04,-9.06 0,-1.69 0.75,-3.42 2.65,-3.42 1.08,0 2.86,0.3 4.86,3.08 l 0.17,0 -1.31,-5.49 c -0.26,-1.11 -0.73,-2.32 -2.76,-2.32 l -0.57,0 -0.09,-0.36 7.45,0 0.1,0.36 -0.43,0 c -0.89,0 -1.46,0.53 -1.46,1.42 0,0.28 0,0.58 0.09,0.87 z"
             inkscape:connector-curvature="0"
             style="fill:#0000ff;fill-opacity:1;stroke-width:0" /></g>      </g>
    </g>
    <g
       id="g4926"
       transform="matrix(0.75,0,0,0.75,-163.15057,110.65382)">
      <g
         transform="translate(185.10354,8.3865682)"
         id="g4226">
        <g
           style="font-style:normal;font-variant:normal;font-weight:normal;font-stretch:normal;letter-spacing:normal;word-spacing:normal;text-anchor:start;fill:none;fill-opacity:1;fill-rule:evenodd;stroke:#000000;stroke-linecap:butt;stroke-linejoin:miter;stroke-miterlimit:10.43299961;stroke-dasharray:none;stroke-dashoffset:0;stroke-opacity:1"
           id="g4228"
           transform="matrix(1.0629921,0,0,-1.0629921,-186.02362,789.27165)"
           xml:space="preserve"
           stroke-miterlimit="10.433"
           font-style="normal"
           font-variant="normal"
           font-weight="normal"
           font-stretch="normal"
           font-size-adjust="none"
           letter-spacing="normal"
           word-spacing="normal"><polygon
             style="fill:#008000;fill-opacity:1;stroke-width:0"
             points="474.02,442.74 458.52,442.74 458.52,440.05 474.02,440.05 "
             id="polygon4230" /><path
             style="fill:#008000;fill-opacity:1;stroke-width:0"
             inkscape:connector-curvature="0"
             d="m 469.61,428.03 -3.48,0 1.55,6.42 -0.64,0 c -2.05,-4.33 -5.1,-6.17 -8.83,-6.88 l -0.25,-1.45 3.84,0 -4.05,-15.94 c -0.14,-0.54 -0.23,-1.18 -0.23,-1.84 0,-1.34 0.39,-2.59 1.94,-2.59 2.93,0 5.42,3.79 6.62,5.32 l -0.64,0.57 c -1.84,-2.5 -3,-2.6 -3,-2.6 -0.64,0 -0.8,0.3 -0.8,0.6 0,0.15 0.05,0.4 0.11,0.54 l 3.88,15.94 3.48,0 z"
             id="path4232" /><path
             style="fill:#008000;fill-opacity:1;stroke-width:0"
             inkscape:connector-curvature="0"
             d="m 491.59,409.67 -2.91,0 -0.59,-2.64 c -0.7,-3.09 -5.38,-11.15 -7.34,-11.15 -1.5,0 -2.02,0.67 -2.02,1.68 0,0.33 0.08,0.67 0.14,1 l 2.66,11.11 -2.96,0 -4.65,-18.53 c -0.56,-2.26 -1.16,-3.5 -1.67,-4.25 l 2.75,0 c 0.86,0.97 1.12,2.23 2.46,7.53 0.19,-0.51 0.9,-0.92 1.54,-0.92 1.7,0 3.61,1.67 7.23,7.12 -0.72,-2.87 -1.23,-5.34 -1.23,-6.39 0,-1.03 0.43,-1.51 1.53,-1.51 1.75,0 4.31,2.31 4.87,3.95 l -0.56,0.22 c -0.44,-0.78 -1.27,-1.8 -2.13,-1.8 -0.43,0 -0.62,0.24 -0.62,0.53 0,0.38 0.14,0.86 0.3,1.46 z"
             id="path4234" /><path
             style="fill:#008000;fill-opacity:1;stroke-width:0"
             inkscape:connector-curvature="0"
             d="m 506.52,397.11 -2.41,0 -0.22,-1.16 -0.08,0 c -0.06,0.78 -0.72,1.55 -2.15,1.55 l 0.26,-0.86 c 1.08,0 1.47,-0.92 1.47,-2.2 l 0,0 c 0,-3.38 -1.8,-6.77 -3.67,-8.11 -0.53,-0.39 -1.22,-0.52 -1.72,-0.52 -1.28,0 -1.56,1.08 -1.56,1.89 0,2.61 1.76,6.58 3.67,8.13 0.59,0.48 1.19,0.81 1.81,0.81 l -0.26,0.86 c -0.83,0 -1.78,-0.39 -2.71,-1.02 -2.65,-1.71 -5.04,-5.39 -5.04,-9.06 0,-1.69 0.75,-3.42 2.65,-3.42 1.08,0 2.86,0.3 4.86,3.08 l 0.17,0 -1.31,-5.49 c -0.26,-1.11 -0.73,-2.32 -2.76,-2.32 l -0.57,0 -0.09,-0.36 7.45,0 0.1,0.36 -0.43,0 c -0.89,0 -1.46,0.53 -1.46,1.42 0,0.28 0,0.58 0.09,0.87 z"
             id="path4236" /></g>      </g>
    </g>
    <g
       id="g4913"
       transform="matrix(0.75,0,0,0.75,6.64831,202.21372)">
      <g
         id="g4366"
         transform="translate(149.34723,-92.944355)">
        <g
           id="g4368"
           transform="matrix(1.0629921,0,0,-1.0629921,-186.02362,789.27165)"
           xml:space="preserve"
           stroke-miterlimit="10.433"
           font-style="normal"
           font-variant="normal"
           font-weight="normal"
           font-stretch="normal"
           font-size-adjust="none"
           letter-spacing="normal"
           word-spacing="normal"
           style="font-style:normal;font-variant:normal;font-weight:normal;font-stretch:normal;letter-spacing:normal;word-spacing:normal;text-anchor:start;fill:none;fill-opacity:1;fill-rule:evenodd;stroke:#000000;stroke-linecap:butt;stroke-linejoin:miter;stroke-miterlimit:10.43299961;stroke-dasharray:none;stroke-dashoffset:0;stroke-opacity:1"><path
             d="m 463.28,421.2 -0.13,0.08 -0.12,0.08 -0.12,0.09 -0.12,0.09 -0.11,0.09 -0.11,0.1 -0.11,0.1 -0.1,0.1 -0.1,0.1 -0.09,0.11 -0.09,0.1 -0.09,0.11 -0.08,0.11 -0.08,0.11 -0.07,0.11 -0.07,0.11 -0.07,0.12 -0.06,0.11 -0.06,0.12 -0.05,0.11 -0.05,0.12 -0.04,0.11 -0.04,0.12 -0.04,0.11 -0.03,0.11 -0.03,0.12 -0.02,0.11 -0.02,0.11 -0.02,0.11 -0.01,0.11 -0.01,0.11 0,0.1 c 0,2.33 1.59,3.37 3.74,3.37 3,0 4.48,-1.64 5.64,-6.12 l 0.75,0 -0.25,6.78 -0.55,0 c -0.41,-0.45 -0.61,-0.5 -0.8,-0.5 -0.36,0 -0.86,0.16 -1.4,0.39 -1.05,0.5 -2.15,0.56 -3.33,0.56 -4.1,0 -6.88,-2.2 -6.88,-6.14 0,-2.53 1.85,-4.92 5.97,-7.22 l 2.69,-1.5 c 1.66,-0.89 2.64,-2.18 2.64,-3.73 0,-2.05 -1.59,-3.69 -4.13,-3.69 -3.43,0 -5.28,2.21 -6.32,7.03 l -0.8,0 0,-7.82 0.64,0 c 0.3,0.5 0.61,0.61 1.2,0.61 0.55,0 1.1,-0.07 2.28,-0.46 1.16,-0.4 2.6,-0.45 3.65,-0.45 3.79,0 6.98,2.89 6.98,6.23 0,2.83 -1.2,4.19 -4.39,6.13 z"
             id="path4372"
             inkscape:connector-curvature="0"
             style="fill:#000000;stroke-width:0" /><path
             d="m 501.2,418.41 -8.83,0 0,-0.71 c 1.64,-0.18 2.31,-0.26 2.94,-0.98 0.56,-0.63 0.72,-1.75 0.72,-3.64 l 0,-12.69 -14.41,18.02 -6.33,0 0,-0.71 c 1.83,0 2.38,-0.45 3.61,-1.98 l 0,-16.41 c 0,-3.98 -0.56,-4.54 -3.61,-4.89 l 0,-0.7 8.72,0 0,0.7 c -2.87,0.42 -3.47,1.05 -3.47,4.89 l 0,14.47 16.46,-20.47 0.67,0 0,19.31 c 0,2.96 0.36,3.77 1.08,4.41 0.48,0.41 1.04,0.52 2.45,0.67 z"
             id="path4374"
             inkscape:connector-curvature="0"
             style="fill:#000000;stroke-width:0" /><path
             d="m 519.5,398.18 -0.64,0.55 -0.6,0.55 -0.58,0.54 -0.54,0.55 -0.52,0.55 -0.49,0.55 -0.46,0.55 -0.43,0.56 -0.41,0.56 -0.38,0.57 -0.36,0.57 -0.33,0.58 -0.31,0.58 -0.29,0.6 -0.26,0.6 -0.25,0.61 -0.22,0.63 -0.21,0.63 -0.18,0.64 -0.17,0.66 -0.15,0.67 -0.13,0.69 -0.11,0.69 -0.11,0.72 -0.08,0.72 -0.07,0.75 -0.06,0.76 -0.05,0.78 -0.04,0.8 -0.02,0.82 -0.01,0.83 -0.01,0.86 c 0,9.61 1.55,14.25 8.47,20.17 l -0.44,0.8 c -7.98,-4.72 -12.31,-11.91 -12.31,-21.11 0,-8.48 4.28,-16.89 12.16,-21.37 z"
             id="path4376"
             inkscape:connector-curvature="0"
             style="fill:#000000;stroke-width:0" /><path
             d="m 535.01,428.03 -3.48,0 1.54,6.42 -0.64,0 c -2.04,-4.33 -5.09,-6.17 -8.83,-6.88 l -0.25,-1.45 3.85,0 -4.05,-15.94 c -0.14,-0.54 -0.23,-1.18 -0.23,-1.84 0,-1.34 0.39,-2.59 1.93,-2.59 2.94,0 5.43,3.79 6.63,5.32 l -0.64,0.57 c -1.84,-2.5 -3,-2.6 -3,-2.6 -0.64,0 -0.8,0.3 -0.8,0.6 0,0.15 0.05,0.4 0.11,0.54 l 3.88,15.94 3.48,0 z"
             id="path4378"
             inkscape:connector-curvature="0"
             style="fill:#0000ff;fill-opacity:1;stroke-width:0" /><path
             d="m 540.66,399.17 0.31,0.16 0.32,0.17 0.3,0.17 0.29,0.19 0.29,0.19 0.28,0.2 0.27,0.2 0.26,0.21 0.25,0.22 0.24,0.23 0.24,0.23 0.22,0.23 0.22,0.24 0.2,0.25 0.2,0.25 0.18,0.25 0.18,0.26 0.17,0.26 0.15,0.26 0.15,0.27 0.13,0.27 0.12,0.28 0.11,0.27 0.11,0.28 0.09,0.28 0.07,0.27 0.07,0.29 0.06,0.28 0.04,0.28 0.03,0.28 0.02,0.28 0,0.28 c 0,2.59 -1.75,4.33 -3.98,4.33 -1.8,0 -3,-1.14 -3,-2.85 0,-1.68 1.05,-2.53 2.89,-2.53 0.55,0 1.05,0.21 1.45,0.21 0.39,0 0.69,-0.32 0.69,-0.66 0,-1.64 -1.39,-3.49 -4.12,-5.33 z"
             id="path4380"
             inkscape:connector-curvature="0"
             style="fill:#000000;stroke-width:0" /><polygon
             points="560.28,440.05 575.78,440.05 575.78,442.74 560.28,442.74 "
             id="polygon4382"
             style="fill:#008000;fill-opacity:1;stroke-width:0" /><path
             d="m 571.38,428.03 -3.49,0 1.55,6.42 -0.64,0 c -2.05,-4.33 -5.1,-6.17 -8.83,-6.88 l -0.25,-1.45 3.84,0 -4.04,-15.94 c -0.14,-0.54 -0.24,-1.18 -0.24,-1.84 0,-1.34 0.39,-2.59 1.94,-2.59 2.94,0 5.42,3.79 6.62,5.32 l -0.64,0.57 c -1.84,-2.5 -3,-2.6 -3,-2.6 -0.64,0 -0.79,0.3 -0.79,0.6 0,0.15 0.04,0.4 0.11,0.54 l 3.87,15.94 3.49,0 z"
             id="path4384"
             inkscape:connector-curvature="0"
             style="fill:#008000;fill-opacity:1;stroke-width:0" /><path
             d="m 574.32,439.07 0.66,-0.53 0.62,-0.53 0.6,-0.54 0.56,-0.53 0.53,-0.54 0.5,-0.55 0.46,-0.54 0.44,-0.56 0.42,-0.55 0.38,-0.57 0.36,-0.57 0.33,-0.58 0.31,-0.59 0.28,-0.59 0.26,-0.61 0.24,-0.61 0.22,-0.63 0.2,-0.63 0.17,-0.65 0.16,-0.66 0.15,-0.68 0.12,-0.69 0.11,-0.7 0.09,-0.72 0.08,-0.73 0.07,-0.75 0.05,-0.77 0.04,-0.78 0.03,-0.81 0.03,-0.82 0.01,-0.84 0,-0.86 c 0,-9.68 -1.4,-14.35 -8.48,-20.18 l 0.45,-0.79 c 7.92,4.82 12.31,11.9 12.31,21.12 0,8.47 -4.53,16.78 -12.15,21.36 z"
             id="path4386"
             inkscape:connector-curvature="0"
             style="fill:#000000;stroke-width:0" /></g>      </g>
    </g>
    <g
       id="g4907"
       transform="matrix(0.75,0,0,0.75,313.17969,128.21084)">
      <g
         id="g4474"
         transform="translate(33.546274,-10.18369)">
        <g
           word-spacing="normal"
           letter-spacing="normal"
           font-size-adjust="none"
           font-stretch="normal"
           font-weight="normal"
           font-variant="normal"
           font-style="normal"
           stroke-miterlimit="10.433"
           xml:space="preserve"
           transform="matrix(1.0629921,0,0,-1.0629921,-186.02362,789.27165)"
           id="g4476"
           style="font-style:normal;font-variant:normal;font-weight:normal;font-stretch:normal;letter-spacing:normal;word-spacing:normal;text-anchor:start;fill:none;fill-opacity:1;fill-rule:evenodd;stroke:#000000;stroke-linecap:butt;stroke-linejoin:miter;stroke-miterlimit:10.43299961;stroke-dasharray:none;stroke-dashoffset:0;stroke-opacity:1"><path
             id="path4480"
             d="m 463.44,429.01 -0.3,0.11 c -2.64,-1.05 -4.43,-1.7 -7.17,-2.55 l 0,-0.79 c 0.44,0.04 0.8,0.04 1.24,0.04 1.7,0 2.04,-0.5 2.04,-2.82 l 0,-23.33 c 0,-2.6 -0.54,-3.14 -3.48,-3.44 l 0,-0.84 12.06,0 0,0.89 c -3.75,0.06 -4.39,0.61 -4.39,3.75 l 0,7.81 c 1.8,-1.64 2.94,-2.14 5.03,-2.14 l 0.16,1.59 c -2.34,0 -5.19,1.8 -5.19,3.3 l 0,12.25 c 0,1.5 2.8,3.28 5.08,3.28 3.69,0 6.12,-3.78 6.12,-9.61 0,-5.48 -2.43,-9.22 -6.01,-9.22 l -0.16,-1.59 c 5.92,0 10.47,5.58 10.47,12.81 0,6.17 -3.5,10.61 -8.33,10.61 -2.78,0 -4.98,-1.2 -7.17,-3.94 z"
             inkscape:connector-curvature="0"
             style="fill:#ff0000;fill-opacity:1;stroke-width:0" /></g>      </g>
    </g>
    <g
       id="g4565"
       transform="matrix(0.75,0,0,0.75,28.25567,292.52807)">
      <g
         word-spacing="normal"
         letter-spacing="normal"
         font-size-adjust="none"
         font-stretch="normal"
         font-weight="normal"
         font-variant="normal"
         font-style="normal"
         stroke-miterlimit="10.433"
         xml:space="preserve"
         transform="matrix(1.0629921,0,0,-1.0629921,-186.02362,789.27165)"
         id="g4567"
         style="font-style:normal;font-variant:normal;font-weight:normal;font-stretch:normal;letter-spacing:normal;word-spacing:normal;text-anchor:start;fill:none;fill-opacity:1;fill-rule:evenodd;stroke:#000000;stroke-linecap:butt;stroke-linejoin:miter;stroke-miterlimit:10.43299961;stroke-dasharray:none;stroke-dashoffset:0;stroke-opacity:1"><g
           id="g4874"><path
             style="fill:#ff0000;fill-opacity:1;stroke-width:0"
             inkscape:connector-curvature="0"
             d="m 477.72,429.01 -0.29,0.11 c -2.64,-1.05 -4.44,-1.7 -7.18,-2.55 l 0,-0.79 c 0.44,0.04 0.8,0.04 1.24,0.04 1.7,0 2.05,-0.5 2.05,-2.82 l 0,-23.33 c 0,-2.6 -0.55,-3.14 -3.49,-3.44 l 0,-0.84 12.06,0 0,0.89 c -3.75,0.06 -4.39,0.61 -4.39,3.75 l 0,7.81 c 1.8,-1.64 2.94,-2.14 5.03,-2.14 l 0.16,1.59 c -2.34,0 -5.19,1.8 -5.19,3.3 l 0,12.25 c 0,1.5 2.8,3.28 5.08,3.28 3.69,0 6.13,-3.78 6.13,-9.61 0,-5.48 -2.44,-9.22 -6.02,-9.22 l -0.16,-1.59 c 5.93,0 10.47,5.58 10.47,12.81 0,6.17 -3.5,10.61 -8.33,10.61 -2.78,0 -4.98,-1.2 -7.17,-3.94 z"
             id="path4571" /><polygon
             style="fill:#000000;stroke-width:0"
             points="508.85,441.71 498.6,419.2 498.6,418.2 508.8,395.59 511.4,395.59 501.88,418.7 511.45,441.71 "
             id="polygon4573" /><path
             style="fill:#000000;stroke-width:0"
             inkscape:connector-curvature="0"
             d="m 542.03,427.53 -3.88,0 -0.8,-3.55 c -0.95,-4.12 -7.17,-14.89 -9.82,-14.89 -2,0 -2.7,0.89 -2.7,2.23 0,0.46 0.11,0.91 0.2,1.36 l 3.55,14.85 -3.93,0 -6.24,-24.77 c -0.75,-3.05 -1.55,-4.69 -2.23,-5.69 l 3.68,0 c 1.14,1.3 1.49,3 3.29,10.08 0.25,-0.7 1.2,-1.25 2.04,-1.25 2.28,0 4.83,2.24 9.66,9.52 -0.94,-3.85 -1.64,-7.13 -1.64,-8.52 0,-1.4 0.59,-2.04 2.04,-2.04 2.35,0 5.78,3.09 6.53,5.28 l -0.75,0.29 c -0.6,-1.04 -1.7,-2.39 -2.84,-2.39 -0.59,0 -0.84,0.3 -0.84,0.71 0,0.5 0.2,1.14 0.39,1.93 z"
             id="path4575" /><path
             style="fill:#000000;stroke-width:0"
             inkscape:connector-curvature="0"
             d="m 560.75,409.67 -3.02,0 -0.26,-1.45 -0.12,0 c -0.07,0.97 -0.88,1.94 -2.68,1.94 l 0.33,-1.08 c 1.34,0 1.82,-1.16 1.82,-2.75 l 0,0 c 0,-4.22 -2.23,-8.47 -4.57,-10.14 -0.68,-0.5 -1.53,-0.64 -2.18,-0.64 -1.59,0 -1.93,1.34 -1.93,2.34 0,3.28 2.2,8.25 4.59,10.19 0.75,0.59 1.49,1 2.27,1 l -0.33,1.08 c -1.05,0 -2.24,-0.49 -3.39,-1.27 -3.33,-2.16 -6.31,-6.75 -6.31,-11.33 0,-2.12 0.93,-4.29 3.32,-4.29 1.35,0 3.58,0.37 6.08,3.84 l 0.22,0 -1.64,-6.86 c -0.33,-1.37 -0.92,-2.91 -3.47,-2.91 l -0.7,0 -0.11,-0.45 9.31,0 0.12,0.45 -0.53,0 c -1.1,0 -1.82,0.68 -1.82,1.78 0,0.35 0,0.72 0.1,1.1 z"
             id="path4577" /><polygon
             style="fill:#000000;stroke-width:0"
             points="574.09,440.57 570.81,440.57 570.81,396.78 574.09,396.78 "
             id="polygon4579" /><polyline
             style="fill:#0000ff;fill-opacity:1;fill-rule:nonzero;stroke-width:0"
             points="580,438 599.44,438 599.44,441.36 580,441.36 "
             id="polyline4581" /><path
             style="fill:#0000ff;fill-opacity:1;stroke-width:0"
             inkscape:connector-curvature="0"
             d="m 588.2,421.2 -0.13,0.08 -0.12,0.08 -0.12,0.09 -0.12,0.09 -0.11,0.09 -0.11,0.1 -0.11,0.1 -0.1,0.1 -0.1,0.1 -0.09,0.11 -0.09,0.1 -0.08,0.11 -0.09,0.11 -0.07,0.11 -0.08,0.11 -0.07,0.11 -0.06,0.12 -0.07,0.11 -0.05,0.12 -0.06,0.11 -0.05,0.12 -0.04,0.11 -0.04,0.12 -0.04,0.11 -0.03,0.11 -0.03,0.12 -0.02,0.11 -0.02,0.11 -0.02,0.11 -0.01,0.11 0,0.11 -0.01,0.1 c 0,2.33 1.6,3.37 3.74,3.37 3,0 4.48,-1.64 5.64,-6.12 l 0.75,0 -0.25,6.78 -0.55,0 c -0.41,-0.45 -0.61,-0.5 -0.8,-0.5 -0.36,0 -0.86,0.16 -1.4,0.39 -1.05,0.5 -2.14,0.56 -3.33,0.56 -4.09,0 -6.88,-2.2 -6.88,-6.14 0,-2.53 1.85,-4.92 5.97,-7.22 l 2.69,-1.5 c 1.66,-0.89 2.64,-2.18 2.64,-3.73 0,-2.05 -1.59,-3.69 -4.12,-3.69 -3.44,0 -5.28,2.21 -6.33,7.03 l -0.8,0 0,-7.82 0.64,0 c 0.3,0.5 0.61,0.61 1.21,0.61 0.54,0 1.09,-0.07 2.28,-0.46 1.15,-0.4 2.59,-0.45 3.64,-0.45 3.79,0 6.98,2.89 6.98,6.23 0,2.83 -1.2,4.19 -4.39,6.13 z"
             id="path4583" /><polygon
             style="fill:#000000;stroke-width:0"
             points="609.48,440.57 606.2,440.57 606.2,396.78 609.48,396.78 "
             id="polygon4585" /><path
             style="fill:#000000;stroke-width:0"
             inkscape:connector-curvature="0"
             d="m 650.86,406.2 0,0.95 c -3.75,0.3 -4.43,1.05 -4.43,4.58 l 0,21.77 c 0,3.84 0.75,4.43 4.43,4.73 l 0,0.95 -13.95,0 0,-0.95 c 3.78,-0.3 4.44,-0.8 4.44,-4.73 l 0,-9.41 -15.11,0 0,9.41 c 0,3.89 0.79,4.43 4.44,4.73 l 0,0.95 -13.96,0 0,-0.95 c 3.85,-0.3 4.44,-0.84 4.44,-4.73 l 0,-21.22 c 0,-4.28 -0.55,-4.88 -4.44,-5.13 l 0,-0.95 13.91,0 -0.05,0.95 c -3.68,0.19 -4.34,1.05 -4.34,4.67 l 0,10.07 15.11,0 0,-9.52 c 0,-4.17 -0.5,-4.97 -4.39,-5.22 l 0,-0.95 z"
             id="path4587" /><path
             style="fill:#000000;stroke-width:0"
             inkscape:connector-curvature="0"
             d="m 679.03,432.06 -0.25,7.12 -26.35,0 0,-0.95 c 3.84,-0.3 4.34,-0.94 4.34,-4.58 l 0,-21.33 c 0,-4.32 -0.61,-4.92 -4.39,-5.17 l 0,-0.95 14,0 0,0.95 c -3.83,0.19 -4.53,0.85 -4.53,4.63 l 0,10.72 7.08,0 c 4.28,0 5.22,-0.75 5.62,-4.85 l 1.14,0 0,11.61 -1.14,0 c -0.45,-3.87 -1.44,-4.73 -5.62,-4.73 l -7.08,0 0,10.81 c 0,1.55 0.25,1.95 1.68,1.95 l 6.58,0 c 6.04,0 6.92,-0.79 7.67,-5.23 z"
             id="path4589" /><polygon
             style="fill:#000000;stroke-width:0"
             points="695.52,419.15 685.3,441.71 682.71,441.71 692.23,418.65 682.66,395.59 685.26,395.59 695.52,418.15 "
             id="polygon4591" /></g></g>    </g>
    <g
       id="g4894"
       transform="matrix(0.75,0,0,0.75,-38.04831,8.5720409)">
      <g
         transform="translate(-267.77115,179.11314)"
         id="g4693">
        <g
           style="font-style:normal;font-variant:normal;font-weight:normal;font-stretch:normal;letter-spacing:normal;word-spacing:normal;text-anchor:start;fill:none;fill-opacity:1;fill-rule:evenodd;stroke:#000000;stroke-linecap:butt;stroke-linejoin:miter;stroke-miterlimit:10.43299961;stroke-dasharray:none;stroke-dashoffset:0;stroke-opacity:1"
           word-spacing="normal"
           letter-spacing="normal"
           font-size-adjust="none"
           font-stretch="normal"
           font-weight="normal"
           font-variant="normal"
           font-style="normal"
           stroke-miterlimit="10.433"
           xml:space="preserve"
           transform="matrix(1.0629921,0,0,-1.0629921,-186.02362,789.27165)"
           id="g4695"><polyline
             style="fill:#0000ff;fill-opacity:1;fill-rule:nonzero;stroke-width:0"
             id="polyline4697"
             points="456,449 504,449 504,452.36 456,452.36 " /><path
             style="fill:#0000ff;fill-opacity:1;stroke-width:0"
             inkscape:connector-curvature="0"
             id="path4699"
             d="m 501.5,438.73 -16.43,0 -0.21,-0.8 1,0 c 2.85,0 3.78,-0.75 3.78,-1.93 0,-0.36 -0.09,-0.71 -0.2,-1.21 l -2.64,-10.81 -13.84,0 2.59,10.81 c 0.39,1.75 1.3,3.14 5.24,3.14 l 0.89,0 0.2,0.8 -16.44,0 -0.2,-0.8 1,0 c 3.08,0 3.87,-0.89 3.87,-1.93 0,-0.36 -0.09,-0.91 -0.2,-1.21 l -6.12,-24.7 c -0.4,-1.7 -1.55,-3.09 -5.29,-3.09 l -0.89,0 -0.2,-0.8 16.44,0 0.2,0.8 -1,0 c -2.94,0 -3.83,0.7 -3.83,1.89 0,0.4 0.1,0.9 0.21,1.2 l 3.03,12.05 13.95,0 -3.05,-12.05 c -0.43,-1.84 -1.64,-3.09 -5.22,-3.09 l -0.9,0 -0.2,-0.8 16.4,0 0.19,0.8 -0.94,0 c -2.94,0 -3.89,0.64 -3.89,1.68 0,0.5 0.09,0.96 0.2,1.41 l 6.13,24.7 c 0.45,1.75 1.5,3.14 5.28,3.14 l 0.89,0 z" /></g>      </g>
    </g>
    <g
       id="g4888"
       transform="matrix(0.75,0,0,0.75,-33.46047,27.492481)">
      <g
         transform="translate(-149.16111,153.35439)"
         id="g4809">
        <g
           style="font-style:normal;font-variant:normal;font-weight:normal;font-stretch:normal;letter-spacing:normal;word-spacing:normal;text-anchor:start;fill:none;fill-opacity:1;fill-rule:evenodd;stroke:#000000;stroke-linecap:butt;stroke-linejoin:miter;stroke-miterlimit:10.43299961;stroke-dasharray:none;stroke-dashoffset:0;stroke-opacity:1"
           id="g4811"
           transform="matrix(1.0629921,0,0,-1.0629921,-186.02362,789.27165)"
           xml:space="preserve"
           stroke-miterlimit="10.433"
           font-style="normal"
           font-variant="normal"
           font-weight="normal"
           font-stretch="normal"
           font-size-adjust="none"
           letter-spacing="normal"
           word-spacing="normal"><polyline
             style="fill:#0000ff;fill-opacity:1;fill-rule:nonzero;stroke-width:0"
             points="456,438 475.44,438 475.44,441.36 456,441.36 "
             id="polyline4813" /><path
             style="fill:#0000ff;fill-opacity:1;stroke-width:0"
             inkscape:connector-curvature="0"
             d="m 463.29,421.2 -0.13,0.08 -0.13,0.08 -0.12,0.09 -0.12,0.09 -0.11,0.09 -0.11,0.1 -0.1,0.1 -0.11,0.1 -0.09,0.1 -0.1,0.11 -0.09,0.1 -0.08,0.11 -0.08,0.11 -0.08,0.11 -0.08,0.11 -0.07,0.11 -0.06,0.12 -0.06,0.11 -0.06,0.12 -0.05,0.11 -0.05,0.12 -0.05,0.11 -0.04,0.12 -0.04,0.11 -0.03,0.11 -0.03,0.12 -0.02,0.11 -0.02,0.11 -0.02,0.11 -0.01,0.11 0,0.11 -0.01,0.1 c 0,2.33 1.6,3.37 3.74,3.37 3,0 4.48,-1.64 5.64,-6.12 l 0.75,0 -0.25,6.78 -0.55,0 c -0.4,-0.45 -0.61,-0.5 -0.79,-0.5 -0.36,0 -0.86,0.16 -1.41,0.39 -1.05,0.5 -2.14,0.56 -3.33,0.56 -4.09,0 -6.87,-2.2 -6.87,-6.14 0,-2.53 1.84,-4.92 5.97,-7.22 l 2.68,-1.5 c 1.66,-0.89 2.64,-2.18 2.64,-3.73 0,-2.05 -1.59,-3.69 -4.12,-3.69 -3.44,0 -5.28,2.21 -6.33,7.03 l -0.8,0 0,-7.82 0.64,0 c 0.3,0.5 0.61,0.61 1.21,0.61 0.54,0 1.09,-0.07 2.28,-0.46 1.15,-0.4 2.59,-0.45 3.64,-0.45 3.8,0 6.98,2.89 6.98,6.23 0,2.83 -1.2,4.19 -4.39,6.13 z"
             id="path4815" /></g>      </g>
    </g>
    <text
       xml:space="preserve"
       style="font-style:normal;font-weight:normal;font-size:21.29232597px;line-height:125%;font-family:sans-serif;letter-spacing:0px;word-spacing:0px;display:inline;fill:#000000;fill-opacity:1;stroke:none;stroke-width:1px;stroke-linecap:butt;stroke-linejoin:miter;stroke-opacity:1"
       x="13.392604"
       y="354.47623"
       id="text4162-4-9-3"
       sodipodi:linespacing="125%"><tspan
         sodipodi:role="line"
         x="13.392604"
         y="354.47623"
         style="font-style:normal;font-variant:normal;font-weight:bold;font-stretch:normal;font-family:'TeX Gyre Heros';-inkscape-font-specification:'TeX Gyre Heros Bold'"
         id="tspan4967-5-6">Update</tspan></text>
  </g>
</svg>
