<?xml version="1.0" encoding="UTF-8" standalone="no"?>
<!-- Created with Inkscape (http://www.inkscape.org/) -->

<svg
   xmlns:dc="http://purl.org/dc/elements/1.1/"
   xmlns:cc="http://creativecommons.org/ns#"
   xmlns:rdf="http://www.w3.org/1999/02/22-rdf-syntax-ns#"
   xmlns:svg="http://www.w3.org/2000/svg"
   xmlns="http://www.w3.org/2000/svg"
   xmlns:sodipodi="http://sodipodi.sourceforge.net/DTD/sodipodi-0.dtd"
   xmlns:inkscape="http://www.inkscape.org/namespaces/inkscape"
   width="375.97665mm"
   height="80.556419mm"
   viewBox="0 0 1332.2007 285.43613"
   id="svg2"
   version="1.1"
   inkscape:version="0.91 r13725"
   sodipodi:docname="scf.svg"
   inkscape:export-filename="/home/roberto/Documents/Presentations/phd-forsvaring/images/scf.png"
   inkscape:export-xdpi="300"
   inkscape:export-ydpi="300">
  <sodipodi:namedview
     id="base"
     pagecolor="#ffffff"
     bordercolor="#666666"
     borderopacity="1.0"
     inkscape:pageopacity="0.0"
     inkscape:pageshadow="2"
     inkscape:zoom="1"
     inkscape:cx="656.60659"
     inkscape:cy="148.98207"
     inkscape:document-units="px"
     inkscape:current-layer="layer1"
     showgrid="false"
     inkscape:window-width="2560"
     inkscape:window-height="1376"
     inkscape:window-x="0"
     inkscape:window-y="27"
     inkscape:window-maximized="1"
     fit-margin-top="0"
     fit-margin-left="0"
     fit-margin-right="0"
     fit-margin-bottom="0" />
  <defs
     id="defs4">
    <marker
       inkscape:isstock="true"
       style="overflow:visible"
       id="marker10873"
       refX="0"
       refY="0"
       orient="auto"
       inkscape:stockid="Arrow2Send">
      <path
         transform="matrix(-0.3,0,0,-0.3,0.69,0)"
         d="M 8.7185878,4.0337352 -2.2072895,0.01601326 8.7185884,-4.0017078 c -1.7454984,2.3720609 -1.7354408,5.6174519 -6e-7,8.035443 z"
         style="fill:#000000;fill-opacity:1;fill-rule:evenodd;stroke:#000000;stroke-width:0.625;stroke-linejoin:round;stroke-opacity:1"
         id="path10875"
         inkscape:connector-curvature="0" />
    </marker>
    <marker
       inkscape:collect="always"
       inkscape:stockid="Arrow2Send"
       orient="auto"
       refY="0"
       refX="0"
       id="marker6535"
       style="overflow:visible"
       inkscape:isstock="true">
      <path
         inkscape:connector-curvature="0"
         id="path6537"
         style="fill:#000000;fill-opacity:1;fill-rule:evenodd;stroke:#000000;stroke-width:0.625;stroke-linejoin:round;stroke-opacity:1"
         d="M 8.7185878,4.0337352 -2.2072895,0.01601326 8.7185884,-4.0017078 c -1.7454984,2.3720609 -1.7354408,5.6174519 -6e-7,8.035443 z"
         transform="matrix(-0.3,0,0,-0.3,0.69,0)" />
    </marker>
    <marker
       inkscape:isstock="true"
       style="overflow:visible"
       id="Arrow2Send"
       refX="0"
       refY="0"
       orient="auto"
       inkscape:stockid="Arrow2Send">
      <path
         inkscape:connector-curvature="0"
         transform="matrix(-0.3,0,0,-0.3,0.69,0)"
         d="M 8.7185878,4.0337352 -2.2072895,0.01601326 8.7185884,-4.0017078 c -1.7454984,2.3720609 -1.7354408,5.6174519 -6e-7,8.035443 z"
         style="fill:#000000;fill-opacity:1;fill-rule:evenodd;stroke:#000000;stroke-width:0.625;stroke-linejoin:round;stroke-opacity:1"
         id="path5075" />
    </marker>
    <marker
       inkscape:isstock="true"
       style="overflow:visible"
       id="Arrow2Send-3-3"
       refX="0"
       refY="0"
       orient="auto"
       inkscape:stockid="Arrow2Send">
      <path
         transform="matrix(-0.3,0,0,-0.3,0.69,0)"
         d="M 8.7185878,4.0337352 -2.2072895,0.01601326 8.7185884,-4.0017078 c -1.7454984,2.3720609 -1.7354408,5.6174519 -6e-7,8.035443 z"
         style="fill:#000000;fill-opacity:1;fill-rule:evenodd;stroke:#000000;stroke-width:0.625;stroke-linejoin:round;stroke-opacity:1"
         id="path5075-9-9"
         inkscape:connector-curvature="0" />
    </marker>
    <marker
       inkscape:isstock="true"
       style="overflow:visible"
       id="Arrow2Send-3-3-4"
       refX="0"
       refY="0"
       orient="auto"
       inkscape:stockid="Arrow2Send">
      <path
         transform="matrix(-0.3,0,0,-0.3,0.69,0)"
         d="M 8.7185878,4.0337352 -2.2072895,0.01601326 8.7185884,-4.0017078 c -1.7454984,2.3720609 -1.7354408,5.6174519 -6e-7,8.035443 z"
         style="fill:#000000;fill-opacity:1;fill-rule:evenodd;stroke:#000000;stroke-width:0.625;stroke-linejoin:round;stroke-opacity:1"
         id="path5075-9-9-1"
         inkscape:connector-curvature="0" />
    </marker>
  </defs>
  <metadata
     id="metadata7">
    <rdf:RDF>
      <cc:Work
         rdf:about="">
        <dc:format>image/svg+xml</dc:format>
        <dc:type
           rdf:resource="http://purl.org/dc/dcmitype/StillImage" />
        <dc:title />
      </cc:Work>
    </rdf:RDF>
  </metadata>
  <g
     style="display:inline"
     transform="translate(239.0172,-290.59991)"
     id="layer1"
     inkscape:groupmode="layer"
     inkscape:label="boxes">
    <rect
       ry="33.903"
       rx="33.903"
       y="314.66074"
       x="469.58197"
       height="102.43594"
       width="221.08981"
       id="rect4138-9"
       style="opacity:0.5;fill:#00776b;fill-opacity:1;stroke:none;stroke-width:5;stroke-linecap:butt;stroke-linejoin:miter;stroke-miterlimit:4;stroke-dasharray:none;stroke-dashoffset:0;stroke-opacity:1" />
    <rect
       ry="33.903"
       rx="33.903"
       y="314.66074"
       x="-239.0172"
       height="102.43594"
       width="221.08981"
       id="rect4138"
       style="opacity:0.5;fill:#00776b;fill-opacity:1;stroke:none;stroke-width:5;stroke-linecap:butt;stroke-linejoin:miter;stroke-miterlimit:4;stroke-dasharray:none;stroke-dashoffset:0;stroke-opacity:1" />
    <rect
       ry="33.903"
       rx="33.903"
       y="314.66074"
       x="22.172287"
       height="102.43594"
       width="221.08981"
       id="rect4138-93"
       style="opacity:0.9;fill:#ffff00;fill-opacity:1;stroke:none;stroke-width:5;stroke-linecap:butt;stroke-linejoin:miter;stroke-miterlimit:4;stroke-dasharray:none;stroke-dashoffset:0;stroke-opacity:1" />
    <path
       d="m 822.09332,441.73926 -75.56967,-75.56967 75.56967,-75.56968 75.56967,75.56967 z"
       inkscape:randomized="0"
       inkscape:rounded="0"
       inkscape:flatsided="true"
       sodipodi:arg2="2.3561945"
       sodipodi:arg1="1.5707963"
       sodipodi:r2="53.435822"
       sodipodi:r1="75.569672"
       sodipodi:cy="366.16959"
       sodipodi:cx="822.09332"
       sodipodi:sides="4"
       id="path5014"
       style="opacity:0.5;fill:#ff0000;fill-opacity:1;stroke:none;stroke-width:5;stroke-linecap:butt;stroke-linejoin:miter;stroke-miterlimit:4;stroke-dasharray:none;stroke-dashoffset:0;stroke-opacity:1"
       sodipodi:type="star" />
    <rect
       ry="33.903"
       rx="33.903"
       y="314.66074"
       x="961.99274"
       height="102.43594"
       width="131.19081"
       id="rect4138-9-2"
       style="opacity:0.5;fill:#00776b;fill-opacity:1;stroke:none;stroke-width:5;stroke-linecap:butt;stroke-linejoin:miter;stroke-miterlimit:4;stroke-dasharray:none;stroke-dashoffset:0;stroke-opacity:1" />
    <path
       inkscape:connector-curvature="0"
       id="path5036"
       d="m -17.322131,368.92536 36.937883,0"
       style="display:inline;fill:none;fill-rule:evenodd;stroke:#000000;stroke-width:2.5;stroke-linecap:butt;stroke-linejoin:miter;stroke-miterlimit:4;stroke-dasharray:none;stroke-opacity:1;marker-end:url(#Arrow2Send)" />
    <path
       inkscape:connector-curvature="0"
       id="path5036-4"
       d="m 243.0706,366.1816 222.00851,0"
       style="display:inline;fill:none;fill-rule:evenodd;stroke:#000000;stroke-width:2.5;stroke-linecap:butt;stroke-linejoin:miter;stroke-miterlimit:4;stroke-dasharray:none;stroke-opacity:1;marker-end:url(#marker10873)" />
    <path
       inkscape:connector-curvature="0"
       id="path5036-4-0"
       d="m 690.57033,366.1816 53.8213,0"
       style="display:inline;fill:none;fill-rule:evenodd;stroke:#000000;stroke-width:2.5;stroke-linecap:butt;stroke-linejoin:miter;stroke-miterlimit:4;stroke-dasharray:none;stroke-opacity:1;marker-end:url(#Arrow2Send-3-3)" />
    <path
       inkscape:connector-curvature="0"
       id="path5036-4-0-7"
       d="m 897.08539,366.54375 62.4068,0"
       style="display:inline;fill:none;fill-rule:evenodd;stroke:#000000;stroke-width:2.5;stroke-linecap:butt;stroke-linejoin:miter;stroke-miterlimit:4;stroke-dasharray:none;stroke-opacity:1;marker-end:url(#Arrow2Send-3-3-4)" />
    <path
       sodipodi:nodetypes="cccc"
       inkscape:connector-curvature="0"
       id="path10590"
       d="m 821.77731,440.12237 0,82.21897 -952.63604,0 0,-100.49172"
       style="display:inline;fill:none;fill-rule:evenodd;stroke:#000000;stroke-width:2.5;stroke-linecap:butt;stroke-linejoin:miter;stroke-miterlimit:4;stroke-dasharray:none;stroke-opacity:1;marker-end:url(#marker6535)" />
  </g>
  <g
     style="display:inline"
     transform="translate(239.0172,-290.59991)"
     inkscape:label="captions"
     id="layer2"
     inkscape:groupmode="layer">
    <text
       sodipodi:linespacing="125%"
       id="text4162-8"
       y="348.30255"
       x="62.080238"
       style="font-style:normal;font-weight:normal;font-size:21.29232597px;line-height:125%;font-family:sans-serif;letter-spacing:0px;word-spacing:0px;fill:#000000;fill-opacity:1;stroke:none;stroke-width:1px;stroke-linecap:butt;stroke-linejoin:miter;stroke-opacity:1"
       xml:space="preserve"><tspan
         id="tspan4791"
         style="font-style:normal;font-variant:normal;font-weight:bold;font-stretch:normal;font-family:'TeX Gyre Heros';-inkscape-font-specification:'TeX Gyre Heros Bold'"
         y="348.30255"
         x="62.080238"
         sodipodi:role="line">Solve for ASC</tspan></text>
    <text
       sodipodi:linespacing="125%"
       id="text4162-8-2"
       y="358.30206"
       x="822.25653"
       style="font-style:normal;font-weight:normal;font-size:21.29232597px;line-height:125%;font-family:sans-serif;letter-spacing:0px;word-spacing:0px;fill:#000000;fill-opacity:1;stroke:none;stroke-width:1px;stroke-linecap:butt;stroke-linejoin:miter;stroke-opacity:1"
       xml:space="preserve"><tspan
         style="font-style:normal;font-variant:normal;font-weight:bold;font-stretch:normal;font-family:'TeX Gyre Heros';-inkscape-font-specification:'TeX Gyre Heros Bold';text-align:center;text-anchor:middle"
         y="358.30206"
         x="822.25653"
         id="tspan4164-3-9"
         sodipodi:role="line">SCF</tspan><tspan
         id="tspan5034"
         style="font-style:normal;font-variant:normal;font-weight:bold;font-stretch:normal;font-family:'TeX Gyre Heros';-inkscape-font-specification:'TeX Gyre Heros Bold';text-align:center;text-anchor:middle"
         y="384.91748"
         x="822.25653"
         sodipodi:role="line">Converged?</tspan></text>
    <text
       sodipodi:linespacing="125%"
       id="text4162-8-9"
       y="374.00516"
       x="988.0874"
       style="font-style:normal;font-weight:normal;font-size:21.29232597px;line-height:125%;font-family:sans-serif;letter-spacing:0px;word-spacing:0px;fill:#000000;fill-opacity:1;stroke:none;stroke-width:1px;stroke-linecap:butt;stroke-linejoin:miter;stroke-opacity:1"
       xml:space="preserve"><tspan
         style="font-style:normal;font-variant:normal;font-weight:bold;font-stretch:normal;font-family:'TeX Gyre Heros';-inkscape-font-specification:'TeX Gyre Heros Bold'"
         y="374.00516"
         x="988.0874"
         id="tspan4164-3-0"
         sodipodi:role="line">Finalize</tspan></text>
    <text
       sodipodi:linespacing="125%"
       id="text4162-4-9-5-5"
       y="509.85104"
       x="311.56763"
       style="font-style:normal;font-weight:normal;font-size:21.29232597px;line-height:125%;font-family:sans-serif;letter-spacing:0px;word-spacing:0px;fill:#000000;fill-opacity:1;stroke:none;stroke-width:1px;stroke-linecap:butt;stroke-linejoin:miter;stroke-opacity:1"
       xml:space="preserve"><tspan
         id="tspan4967-5-7-0"
         style="font-style:normal;font-variant:normal;font-weight:bold;font-stretch:normal;font-family:'TeX Gyre Heros';-inkscape-font-specification:'TeX Gyre Heros Bold'"
         y="509.85104"
         x="311.56763"
         sodipodi:role="line">Update</tspan></text>
    <text
       sodipodi:linespacing="125%"
       id="text4162"
       y="343.91632"
       x="-200.78352"
       style="font-style:normal;font-weight:normal;font-size:21.29232597px;line-height:125%;font-family:sans-serif;letter-spacing:0px;word-spacing:0px;fill:#000000;fill-opacity:1;stroke:none;stroke-width:1px;stroke-linecap:butt;stroke-linejoin:miter;stroke-opacity:1"
       xml:space="preserve"><tspan
         style="font-style:normal;font-variant:normal;font-weight:bold;font-stretch:normal;font-family:'TeX Gyre Heros';-inkscape-font-specification:'TeX Gyre Heros Bold'"
         y="343.91632"
         x="-200.78352"
         id="tspan4164"
         sodipodi:role="line">Compute MEP</tspan></text>
    <g
       id="g4838"
       transform="matrix(1.4606951,0,0,1.4606951,-58.59648,-824.02494)">
      <g
         word-spacing="normal"
         letter-spacing="normal"
         font-size-adjust="none"
         font-stretch="normal"
         font-weight="normal"
         font-variant="normal"
         font-style="normal"
         stroke-miterlimit="10.433"
         xml:space="preserve"
         transform="matrix(0.4077659,0,0,-0.4077659,-71.359033,999.15055)"
         id="g4840"
         style="font-style:normal;font-variant:normal;font-weight:normal;font-stretch:normal;letter-spacing:normal;word-spacing:normal;text-anchor:start;fill:none;fill-opacity:1;fill-rule:evenodd;stroke:#000000;stroke-linecap:butt;stroke-linejoin:miter;stroke-miterlimit:10.43299961;stroke-dasharray:none;stroke-dashoffset:0;stroke-opacity:1"><path
           id="path4842"
           d="m 482.77,427.53 -12.3,0 c -6.48,0 -12.95,-5.44 -12.95,-13.91 0,-3.58 1.94,-7.97 7.06,-7.97 l 0.21,1.5 c -2.69,0 -3.24,3.49 -3.24,5.08 0,7.08 4.78,11.36 8.13,11.66 l 0.09,0 c 1.64,-1 3.59,-3.24 3.59,-6.43 0,-4.04 -3.64,-10.31 -8.57,-10.31 l -0.21,-1.5 c 7.24,0 12.77,5.53 12.77,11.11 0,3.74 -3.1,3.99 -4.19,7.13 l 8.61,0 z"
           inkscape:connector-curvature="0"
           style="fill:#ff0000;fill-opacity:1;stroke-width:0" /><path
           id="path4844"
           d="m 499.94,398.18 -0.64,0.55 -0.61,0.55 -0.57,0.54 -0.55,0.55 -0.51,0.55 -0.49,0.55 -0.46,0.55 -0.44,0.56 -0.4,0.56 -0.38,0.57 -0.36,0.57 -0.33,0.58 -0.31,0.58 -0.29,0.6 -0.27,0.6 -0.24,0.61 -0.22,0.63 -0.21,0.63 -0.18,0.64 -0.17,0.66 -0.15,0.67 -0.13,0.69 -0.12,0.69 -0.1,0.72 -0.08,0.72 -0.08,0.75 -0.06,0.76 -0.04,0.78 -0.04,0.8 -0.02,0.82 -0.02,0.83 0,0.86 c 0,9.61 1.55,14.25 8.47,20.17 l -0.44,0.8 c -7.98,-4.72 -12.31,-11.91 -12.31,-21.11 0,-8.48 4.28,-16.89 12.15,-21.37 z"
           inkscape:connector-curvature="0"
           style="fill:#ff0000;fill-opacity:1;stroke-width:0" /><path
           id="path4846"
           d="m 518.29,422.43 0,7.24 -1.09,0 c -0.3,-0.75 -0.6,-1 -1.25,-1 -0.3,0 -0.75,0.09 -1.55,0.34 -1.59,0.55 -2.73,0.75 -3.87,0.75 -4.53,0 -7.83,-3.08 -7.83,-7.26 0,-3.3 2.05,-5.58 7.08,-7.74 3.44,-1.48 4.78,-2.73 4.78,-4.33 0,-1.93 -1.5,-3.23 -3.74,-3.23 -3.48,0 -5.78,2.23 -6.82,6.58 l -1.39,0 0,-8.22 1.23,0 c 0.56,1.05 0.86,1.39 1.3,1.39 0.25,0 0.65,-0.11 1.15,-0.3 1.44,-0.61 3.99,-1.15 5.38,-1.15 4.53,0 7.67,3.09 7.67,7.57 0,3.54 -1.89,5.69 -6.87,7.77 -3.4,1.41 -4.79,2.7 -4.79,4.39 0,1.64 1.39,2.89 3.28,2.89 1.35,0 2.64,-0.55 3.76,-1.59 1.03,-1 1.59,-1.94 2.32,-4.1 z"
           inkscape:connector-curvature="0"
           style="fill:#ff0000;fill-opacity:1;stroke-width:0" /><path
           id="path4848"
           d="m 522.11,439.07 0.66,-0.53 0.63,-0.53 0.59,-0.54 0.56,-0.53 0.53,-0.54 0.5,-0.55 0.47,-0.54 0.44,-0.56 0.41,-0.55 0.38,-0.57 0.36,-0.57 0.33,-0.58 0.31,-0.59 0.28,-0.59 0.27,-0.61 0.23,-0.61 0.22,-0.63 0.2,-0.63 0.18,-0.65 0.16,-0.66 0.14,-0.68 0.12,-0.69 0.11,-0.7 0.1,-0.72 0.07,-0.73 0.07,-0.75 0.05,-0.77 0.05,-0.78 0.03,-0.81 0.02,-0.82 0.01,-0.84 0,-0.86 c 0,-9.68 -1.4,-14.35 -8.48,-20.18 l 0.45,-0.79 c 7.92,4.82 12.32,11.9 12.32,21.12 0,8.47 -4.54,16.78 -12.16,21.36 z"
           inkscape:connector-curvature="0"
           style="fill:#ff0000;fill-opacity:1;stroke-width:0" /></g>    </g>
    <g
       id="g5635"
       transform="matrix(1.2968915,0,0,1.2968915,107.55689,-531.70217)">
      <g
         word-spacing="normal"
         letter-spacing="normal"
         font-size-adjust="none"
         font-stretch="normal"
         font-weight="normal"
         font-variant="normal"
         font-style="normal"
         stroke-miterlimit="10.433"
         xml:space="preserve"
         transform="matrix(0.4077659,0,0,-0.4077659,-71.359033,999.15055)"
         id="g5637"
         style="font-style:normal;font-variant:normal;font-weight:normal;font-stretch:normal;letter-spacing:normal;word-spacing:normal;text-anchor:start;fill:none;fill-opacity:1;fill-rule:evenodd;stroke:#000000;stroke-linecap:butt;stroke-linejoin:miter;stroke-miterlimit:10.43299961;stroke-dasharray:none;stroke-dashoffset:0;stroke-opacity:1"><path
           id="path5639"
           d="m 465.19,438.73 -0.25,-0.84 1.24,0 c 2.93,0 3.84,-0.75 3.84,-1.85 0,-0.34 -0.11,-0.79 -0.2,-1.2 l -6.08,-24.75 c -0.39,-1.7 -1.55,-3.09 -5.24,-3.09 l -0.89,0 -0.2,-0.8 15.25,0 c 12.86,0 20.97,8.31 20.97,18.83 0,8.58 -5.03,13.7 -14.39,13.7 l -0.61,-1.89 c 7.33,0 8.97,-6.83 8.97,-12.56 0,-7.02 -3.92,-16.19 -13.5,-16.19 -1.74,0 -4.74,0.11 -4.74,2.14 0,0.16 0,0.41 0.25,1.34 l 6.08,25.11 c 0.8,0.11 1.95,0.16 2.94,0.16 l 0.61,1.89 z"
           inkscape:connector-curvature="0"
           style="fill:#000000;stroke-width:0" /><path
           id="path5641"
           d="m 502.08,403.08 1.86,7.01 -6,-1.01 0.06,-0.56 c 0.43,0.07 0.75,0.12 1.05,0.12 0.86,0 1.2,-0.34 1.2,-0.75 l 0,-0.34 -3.51,-13.83 2.9,0 2.15,8.17 3.34,-5.7 c 0.23,-0.31 0.48,-0.99 0.48,-1.24 0,-0.64 -1.78,-0.64 -2.15,-0.64 l -0.03,-0.59 8.75,0 0.04,0.59 c -2.28,0.27 -2.87,0.46 -3.76,1.94 l -4.19,6.98 5.34,4.21 c 0.38,0.29 1.16,0.78 1.94,0.78 1.23,0 1.11,-1 2.23,-1 1.13,0 1.57,0.67 1.57,1.42 0,0.81 -0.49,1.52 -1.75,1.52 -1.42,0 -2.42,-0.33 -4.71,-2 z"
           inkscape:connector-curvature="0"
           style="fill:#000000;stroke-width:0" /><path
           id="path5643"
           d="m 535.53,398.34 -0.07,-0.19 -0.07,-0.19 -0.07,-0.18 -0.07,-0.17 -0.07,-0.16 -0.07,-0.16 -0.07,-0.14 -0.07,-0.14 -0.06,-0.14 -0.07,-0.12 -0.06,-0.12 -0.07,-0.11 -0.06,-0.11 -0.06,-0.1 -0.06,-0.09 -0.07,-0.09 -0.06,-0.08 -0.06,-0.07 -0.05,-0.07 -0.06,-0.06 -0.06,-0.06 -0.06,-0.05 -0.06,-0.04 -0.05,-0.04 -0.06,-0.04 -0.05,-0.03 -0.06,-0.02 -0.05,-0.02 -0.06,-0.01 -0.05,-0.02 -0.05,0 -0.06,0 c -1.34,0 -1.42,2.42 -1.42,3.76 l 0,14.28 c 0,3.35 -0.7,5.06 -2.05,5.06 -2.04,0 -3.25,-2.79 -3.87,-5.14 l 0.59,0 c 0.78,2.1 1.42,2.75 1.97,2.75 1.1,0 1.91,-1.07 2.1,-3.57 0.03,-0.41 0.03,-1.46 0.03,-1.71 0,-0.42 -0.03,-0.86 -0.07,-1.15 l -11.9,-16.08 3.76,0 8.14,11.08 c -0.26,-3.85 -0.61,-5.86 -0.61,-8.13 0,-2.12 0.97,-3.55 2.02,-3.55 1.83,0 3.06,2.16 3.89,5.22 z"
           inkscape:connector-curvature="0"
           style="fill:#000000;stroke-width:0" /><polygon
           id="polygon5645"
           points="585.41,425.43 556.07,425.43 556.07,422.14 585.41,422.14 "
           style="fill:#000000;stroke-width:0" /><polygon
           id="polygon5647"
           points="585.41,415.46 556.07,415.46 556.07,412.18 585.41,412.18 "
           style="fill:#000000;stroke-width:0" /><path
           id="path5649"
           d="m 644.2,408.14 -1.48,0 c -1.1,-4.98 -2.9,-8.37 -8.47,-8.37 l -20.63,0 16.73,21.62 -14.45,19.49 15.95,0 c 6.63,0 8.52,-2.49 9.57,-9.22 l 1.5,0 0,12.5 -37.22,0 18.28,-25.5 -19.53,-25.41 37.11,0 z"
           inkscape:connector-curvature="0"
           style="fill:#000000;stroke-width:0" /><path
           id="path5651"
           d="m 656.74,412.31 0,0.09 -0.01,0.08 -0.01,0.09 -0.02,0.08 -0.02,0.09 -0.02,0.08 -0.03,0.09 -0.03,0.08 -0.04,0.08 -0.04,0.08 -0.04,0.08 -0.05,0.07 -0.05,0.08 -0.05,0.07 -0.06,0.07 -0.06,0.06 -0.06,0.07 -0.07,0.06 -0.06,0.06 -0.07,0.05 -0.08,0.05 -0.07,0.05 -0.08,0.05 -0.08,0.04 -0.08,0.03 -0.08,0.04 -0.08,0.02 -0.09,0.03 -0.09,0.01 -0.08,0.02 -0.09,0.01 -0.09,0 c -1.08,0 -1.8,-0.94 -1.8,-1.86 0,-0.97 0.72,-1.72 1.8,-1.72 0.97,0 1.78,0.75 1.78,1.72 z"
           inkscape:connector-curvature="0"
           style="fill:#000000;stroke-width:0" /><path
           id="path5653"
           d="m 655.63,407.64 -5.89,-0.82 0.11,-0.59 c 0.26,0.08 0.7,0.14 1.05,0.14 0.85,0 1.15,-0.19 1.15,-0.81 0,-0.11 -0.05,-0.38 -0.08,-0.45 -2.95,-11.44 -2.95,-12.16 -2.95,-12.6 0,-1.01 0.45,-1.72 1.5,-1.72 1.83,0 3.69,2.24 5,3.91 l -0.49,0.37 c -1.34,-1.45 -1.57,-1.9 -2.38,-1.9 -0.27,0 -0.49,0.12 -0.49,0.37 0,0.16 0,0.3 0.03,0.53 z"
           inkscape:connector-curvature="0"
           style="fill:#000000;stroke-width:0" /><path
           id="path5655"
           d="m 705.02,439.03 -0.89,0 c -0.75,-1.24 -1.54,-1.35 -2.09,-1.35 -2.59,0 -5.19,1.35 -7.88,1.35 -12.06,0 -22.07,-8.11 -22.07,-19.58 0,-7.33 4.73,-13.84 14.36,-13.84 1.93,0 5.71,0.29 9.6,3.03 1.46,1.04 3.1,2.54 4.44,4.59 l -1,0.64 c -0.25,-0.34 -0.5,-0.64 -0.84,-1 -2.25,-2.44 -5.88,-4.87 -10.77,-4.87 -6.72,0 -9.72,5.07 -9.72,10.65 0,8.52 5.89,18.53 15.91,18.53 6.02,0 7.56,-3.93 7.56,-7.17 0,-1.25 0,-1.69 -0.04,-2.09 l 0.79,0 z"
           inkscape:connector-curvature="0"
           style="fill:#000000;stroke-width:0" /><path
           id="path5657"
           d="m 710.28,403.08 1.86,7.01 -6,-1.01 0.06,-0.56 c 0.42,0.07 0.75,0.12 1.05,0.12 0.86,0 1.2,-0.34 1.2,-0.75 l 0,-0.34 -3.51,-13.83 2.9,0 2.14,8.17 3.35,-5.7 c 0.23,-0.31 0.48,-0.99 0.48,-1.24 0,-0.64 -1.78,-0.64 -2.15,-0.64 l -0.04,-0.59 8.76,0 0.04,0.59 c -2.28,0.27 -2.87,0.46 -3.76,1.94 l -4.19,6.98 5.34,4.21 c 0.38,0.29 1.16,0.78 1.94,0.78 1.23,0 1.11,-1 2.23,-1 1.13,0 1.57,0.67 1.57,1.42 0,0.81 -0.49,1.52 -1.75,1.52 -1.42,0 -2.42,-0.33 -4.71,-2 z"
           inkscape:connector-curvature="0"
           style="fill:#000000;stroke-width:0" /><path
           id="path5659"
           d="m 734.85,414.83 0,0.08 0,0.09 -0.02,0.09 -0.01,0.08 -0.02,0.09 -0.03,0.08 -0.02,0.09 -0.04,0.08 -0.03,0.08 -0.04,0.08 -0.05,0.08 -0.04,0.07 -0.05,0.08 -0.06,0.07 -0.05,0.07 -0.06,0.06 -0.06,0.07 -0.07,0.06 -0.07,0.06 -0.07,0.05 -0.07,0.05 -0.07,0.05 -0.08,0.05 -0.08,0.04 -0.08,0.03 -0.08,0.04 -0.09,0.02 -0.08,0.03 -0.09,0.01 -0.09,0.02 -0.09,0.01 -0.09,0 c -1.07,0 -1.79,-0.94 -1.79,-1.86 0,-0.97 0.72,-1.72 1.79,-1.72 0.97,0 1.78,0.75 1.78,1.72 z"
           inkscape:connector-curvature="0"
           style="fill:#000000;stroke-width:0" /><path
           id="path5661"
           d="m 733.75,410.16 -5.9,-0.82 0.12,-0.59 c 0.26,0.08 0.7,0.14 1.04,0.14 0.86,0 1.16,-0.19 1.16,-0.81 0,-0.11 -0.05,-0.38 -0.08,-0.46 -2.95,-11.43 -2.95,-12.15 -2.95,-12.59 0,-1.01 0.45,-1.72 1.5,-1.72 1.83,0 3.68,2.24 5,3.91 l -0.49,0.37 c -1.34,-1.45 -1.58,-1.9 -2.39,-1.9 -0.26,0 -0.48,0.12 -0.48,0.37 0,0.16 0,0.3 0.03,0.53 z"
           inkscape:connector-curvature="0"
           style="fill:#000000;stroke-width:0" /><path
           id="path5663"
           d="m 774.74,439.03 -0.89,0 c -0.75,-1.24 -1.55,-1.35 -2.09,-1.35 -2.6,0 -5.19,1.35 -7.88,1.35 -12.06,0 -22.08,-8.11 -22.08,-19.58 0,-7.33 4.74,-13.84 14.36,-13.84 1.94,0 5.72,0.29 9.61,3.03 1.46,1.04 3.1,2.54 4.44,4.59 l -1,0.64 c -0.25,-0.34 -0.5,-0.64 -0.84,-1 -2.25,-2.44 -5.88,-4.87 -10.77,-4.87 -6.72,0 -9.72,5.07 -9.72,10.65 0,8.52 5.89,18.53 15.91,18.53 6.01,0 7.56,-3.93 7.56,-7.17 0,-1.25 0,-1.69 -0.05,-2.09 l 0.8,0 z"
           inkscape:connector-curvature="0"
           style="fill:#000000;stroke-width:0" /><path
           id="path5665"
           d="m 793.81,436.64 0,0.07 -0.01,0.08 -0.01,0.07 -0.01,0.07 -0.01,0.07 -0.02,0.08 -0.02,0.07 -0.02,0.06 -0.03,0.07 -0.03,0.07 -0.03,0.06 -0.03,0.07 -0.04,0.06 -0.04,0.06 -0.04,0.06 -0.04,0.05 -0.05,0.06 -0.04,0.05 -0.05,0.05 -0.06,0.04 -0.05,0.05 -0.06,0.04 -0.06,0.04 -0.06,0.03 -0.06,0.03 -0.06,0.03 -0.07,0.02 -0.06,0.02 -0.07,0.01 -0.07,0.01 -0.07,0.01 -0.07,0 c -0.27,0 -0.54,-0.06 -0.83,-0.22 -1,-0.59 -2.02,-2.56 -4.69,-3.98 0,2.56 1.08,5 1.08,6.16 0,0.78 -0.75,1.48 -1.43,1.48 -0.7,0 -1.42,-0.7 -1.42,-1.48 0,-1.16 1.1,-3.63 1.1,-6.21 -2.13,1.13 -3.77,3.41 -4.86,4.03 -0.3,0.16 -0.55,0.22 -0.82,0.22 -0.78,0 -1.34,-0.78 -1.34,-1.56 0,-0.41 0.27,-0.81 0.75,-1.11 1.03,-0.64 3.91,-1.01 5.84,-2.12 -1.93,-1.13 -4.68,-1.5 -5.7,-2.07 -0.56,-0.32 -0.78,-0.92 -0.78,-1.45 0,-0.62 0.48,-1.19 1.38,-1.19 0.34,0 0.67,0.11 1.01,0.3 0.81,0.45 2.56,2.8 4.52,3.92 0,-2.58 -1.1,-4.89 -1.1,-6.04 0,-0.79 0.72,-1.57 1.42,-1.57 0.68,0 1.43,0.78 1.43,1.57 0,1.15 -1.08,3.46 -1.08,6.04 2.86,-1.64 3.8,-4.25 5.33,-4.25 0.92,0 1.45,0.71 1.45,1.45 0,0.44 -0.26,0.9 -0.78,1.19 -1.02,0.6 -3.39,0.71 -5.75,2.1 2.69,1.51 4.84,1.51 5.78,2.07 0.53,0.3 0.83,0.75 0.83,1.16 z"
           inkscape:connector-curvature="0"
           style="fill:#000000;stroke-width:0" /><path
           id="path5667"
           d="m 791.25,390.66 -0.07,-0.19 -0.07,-0.19 -0.07,-0.18 -0.07,-0.17 -0.07,-0.16 -0.07,-0.16 -0.07,-0.14 -0.06,-0.14 -0.07,-0.14 -0.07,-0.12 -0.06,-0.12 -0.06,-0.11 -0.07,-0.11 -0.06,-0.1 -0.06,-0.09 -0.06,-0.09 -0.06,-0.08 -0.06,-0.07 -0.06,-0.07 -0.06,-0.06 -0.06,-0.06 -0.06,-0.05 -0.05,-0.04 -0.06,-0.04 -0.06,-0.04 -0.05,-0.03 -0.06,-0.02 -0.05,-0.02 -0.05,-0.01 -0.06,-0.02 -0.05,0 -0.06,0 c -1.34,0 -1.42,2.42 -1.42,3.76 l 0,14.28 c 0,3.35 -0.7,5.07 -2.04,5.07 -2.05,0 -3.25,-2.8 -3.88,-5.15 l 0.59,0 c 0.79,2.1 1.43,2.75 1.97,2.75 1.1,0 1.91,-1.07 2.1,-3.57 0.03,-0.41 0.03,-1.46 0.03,-1.71 0,-0.42 -0.03,-0.86 -0.06,-1.15 l -11.91,-16.08 3.77,0 8.14,11.08 c -0.27,-3.85 -0.61,-5.86 -0.61,-8.13 0,-2.12 0.97,-3.54 2.01,-3.54 1.83,0 3.06,2.15 3.89,5.21 z"
           inkscape:connector-curvature="0"
           style="fill:#000000;stroke-width:0" /><path
           id="path5669"
           d="m 802.53,407.15 0,0.08 0,0.09 -0.02,0.09 -0.01,0.08 -0.02,0.09 -0.03,0.08 -0.02,0.09 -0.04,0.08 -0.03,0.08 -0.04,0.08 -0.05,0.08 -0.04,0.07 -0.05,0.08 -0.06,0.07 -0.05,0.07 -0.06,0.06 -0.06,0.07 -0.07,0.06 -0.07,0.06 -0.07,0.05 -0.07,0.05 -0.07,0.05 -0.08,0.05 -0.08,0.04 -0.08,0.03 -0.08,0.04 -0.09,0.02 -0.08,0.03 -0.09,0.01 -0.09,0.02 -0.09,0.01 -0.09,0 c -1.07,0 -1.79,-0.94 -1.79,-1.86 0,-0.97 0.72,-1.72 1.79,-1.72 0.97,0 1.78,0.75 1.78,1.72 z"
           inkscape:connector-curvature="0"
           style="fill:#000000;stroke-width:0" /><path
           id="path5671"
           d="m 801.43,402.48 -5.9,-0.82 0.12,-0.59 c 0.26,0.08 0.7,0.14 1.04,0.14 0.86,0 1.16,-0.19 1.16,-0.81 0,-0.11 -0.05,-0.38 -0.08,-0.45 -2.95,-11.44 -2.95,-12.16 -2.95,-12.6 0,-1.01 0.45,-1.72 1.5,-1.72 1.83,0 3.68,2.24 5,3.91 l -0.49,0.37 c -1.34,-1.45 -1.58,-1.9 -2.39,-1.9 -0.26,0 -0.48,0.12 -0.48,0.37 0,0.16 0,0.3 0.03,0.53 z"
           inkscape:connector-curvature="0"
           style="fill:#000000;stroke-width:0" /></g>    </g>
    <g
       transform="matrix(1.1215047,0,0,1.1215047,117.09333,-540.54917)"
       id="g5903">
      <g
         style="font-style:normal;font-variant:normal;font-weight:normal;font-stretch:normal;letter-spacing:normal;word-spacing:normal;text-anchor:start;fill:none;fill-opacity:1;fill-rule:evenodd;stroke:#000000;stroke-linecap:butt;stroke-linejoin:miter;stroke-miterlimit:10.43299961;stroke-dasharray:none;stroke-dashoffset:0;stroke-opacity:1"
         id="g5905"
         transform="matrix(0.4077659,0,0,-0.4077659,-71.359033,999.15055)"
         xml:space="preserve"
         stroke-miterlimit="10.433"
         font-style="normal"
         font-variant="normal"
         font-weight="normal"
         font-stretch="normal"
         font-size-adjust="none"
         letter-spacing="normal"
         word-spacing="normal"><path
           style="fill:#000000;stroke-width:0"
           inkscape:connector-curvature="0"
           d="m 467.83,428.82 -0.2,0.19 c -2.5,-1.09 -5.19,-1.44 -7.78,-2.09 l 0,-0.74 c 0.65,0 2.84,0 2.84,-1 0,-0.4 -0.14,-0.84 -0.25,-1.25 l -2.89,-10.45 c -0.3,-1 -0.44,-2.05 -0.44,-3.09 0,-3.64 2.58,-4.64 5.77,-4.64 3.69,0 7.53,2.2 9.67,5.18 2.89,3.99 4.83,9.02 4.83,13.96 0,1.59 -0.25,4.12 -2.34,4.12 -1.44,0 -2.69,-0.39 -2.69,-2.09 0,-2.19 3.04,-1.74 3.04,-5.42 0,-1.25 -0.35,-2.5 -0.75,-3.69 -1.59,-4.49 -5.07,-10.11 -10.46,-10.11 -1.99,0 -2.99,1.39 -2.99,3.28 0,0.55 0.05,1.09 0.2,1.59 z"
           id="path5907" /><path
           style="fill:#000000;stroke-width:0"
           inkscape:connector-curvature="0"
           d="m 481.31,449.13 0,-0.7 c 2.77,-0.24 3.14,-0.68 3.14,-3.44 l 0,-16 c 0,-3.2 -0.23,-3.61 -3.14,-3.85 l 0,-0.7 10.44,0 0,0.7 c -3.02,0.16 -3.5,0.65 -3.5,3.47 l 0,6.68 0,1.5 0,9.62 c 0,1 0.22,1.34 1.31,1.34 5.06,0 7.3,-1.5 7.3,-5.59 0,-3.36 -2.24,-5.48 -6.33,-5.48 -0.75,0 -1.42,0.03 -2.28,0.11 l 0,-1.5 c 1.02,-0.07 1.61,-0.11 2.58,-0.11 3.98,0 5.81,0.34 7.97,2.28 1.39,1.23 2.14,2.9 2.14,4.89 0,1.86 -0.64,3.39 -1.88,4.44 -1.67,1.4 -4.36,2.34 -8.09,2.34 z"
           id="path5909" /><path
           style="fill:#000000;stroke-width:0"
           inkscape:connector-curvature="0"
           d="m 524.37,429.33 -0.26,-0.24 -0.26,-0.24 -0.25,-0.22 -0.25,-0.22 -0.25,-0.21 -0.24,-0.2 -0.24,-0.19 -0.24,-0.19 -0.24,-0.17 -0.24,-0.17 -0.24,-0.16 -0.23,-0.15 -0.24,-0.14 -0.24,-0.13 -0.23,-0.13 -0.24,-0.12 -0.24,-0.11 -0.25,-0.1 -0.24,-0.1 -0.25,-0.08 -0.25,-0.08 -0.26,-0.08 -0.26,-0.06 -0.26,-0.06 -0.27,-0.05 -0.27,-0.04 -0.28,-0.04 -0.28,-0.03 -0.29,-0.02 -0.3,-0.02 -0.3,-0.01 -0.32,0 c -2.56,0 -5,0.92 -6.64,2.67 -1.75,1.9 -2.67,4.81 -2.67,8.92 0,6.45 3.31,11 8.94,11 2.44,0 4.37,-1.08 6.01,-2.84 0.93,-1 1.49,-2.08 1.94,-4.13 l 0.86,0 -0.34,8.45 -0.75,0 c -0.22,-0.78 -0.85,-1.21 -1.56,-1.21 -0.63,0 -1.79,0.43 -2.57,0.67 -1.5,0.4 -2.98,0.54 -4.43,0.54 -3.47,0 -6.69,-1.21 -9.07,-3.87 -2.12,-2.39 -3.36,-5.48 -3.36,-9.2 0,-3.71 1.3,-7.1 3.58,-9.33 2.16,-2.13 5.41,-3.31 8.8,-3.31 4.4,0 8.01,1.64 10.19,4.73 z"
           id="path5911" /><path
           style="fill:#000000;stroke-width:0"
           inkscape:connector-curvature="0"
           d="m 558.65,424.44 0,0.7 c -2.72,0.19 -3.28,0.83 -3.28,3.47 l 0,16.35 c 0,2.79 0.56,3.42 3.25,3.47 l 0,0.7 -7.42,0 -8.25,-18.72 -8.61,18.72 -7.39,0 0,-0.7 c 3.06,-0.19 3.55,-0.68 3.55,-3.52 l 0,-14.84 c 0,-4.18 -0.52,-4.69 -3.61,-4.93 l 0,-0.7 8.71,0 0,0.7 c -2.87,0.16 -3.46,0.83 -3.46,4.93 l 0,14.84 9.4,-20.47 0.52,0 9.51,21.33 0,-16.73 c 0,-3.11 -0.42,-3.71 -3.35,-3.9 l 0,-0.7 z"
           id="path5913" /><path
           style="fill:#000000;stroke-width:0"
           inkscape:connector-curvature="0"
           d="m 487.92,395.4 1.86,7.01 -6,-1.01 0.06,-0.56 c 0.43,0.07 0.75,0.12 1.05,0.12 0.86,0 1.2,-0.34 1.2,-0.75 l 0,-0.34 -3.51,-13.83 2.9,0 2.14,8.17 3.35,-5.7 c 0.23,-0.31 0.48,-0.99 0.48,-1.24 0,-0.64 -1.78,-0.64 -2.15,-0.64 l -0.03,-0.59 8.75,0 0.04,0.59 c -2.28,0.27 -2.87,0.46 -3.76,1.94 l -4.19,6.98 5.34,4.21 c 0.38,0.29 1.16,0.78 1.94,0.78 1.23,0 1.11,-1 2.23,-1 1.13,0 1.57,0.67 1.57,1.42 0,0.81 -0.49,1.52 -1.75,1.52 -1.42,0 -2.42,-0.33 -4.71,-2 z"
           id="path5915" /><path
           style="fill:#000000;stroke-width:0"
           inkscape:connector-curvature="0"
           d="m 521.37,390.66 -0.07,-0.19 -0.07,-0.19 -0.07,-0.18 -0.07,-0.17 -0.07,-0.16 -0.07,-0.16 -0.07,-0.14 -0.07,-0.14 -0.06,-0.14 -0.07,-0.12 -0.06,-0.12 -0.07,-0.11 -0.06,-0.11 -0.06,-0.1 -0.06,-0.09 -0.07,-0.09 -0.06,-0.08 -0.06,-0.07 -0.05,-0.07 -0.06,-0.06 -0.06,-0.06 -0.06,-0.05 -0.06,-0.04 -0.05,-0.04 -0.06,-0.04 -0.05,-0.03 -0.06,-0.02 -0.05,-0.02 -0.06,-0.01 -0.05,-0.02 -0.06,0 -0.05,0 c -1.34,0 -1.42,2.42 -1.42,3.76 l 0,14.28 c 0,3.35 -0.7,5.07 -2.05,5.07 -2.04,0 -3.25,-2.8 -3.87,-5.15 l 0.59,0 c 0.78,2.1 1.42,2.75 1.97,2.75 1.1,0 1.91,-1.07 2.1,-3.57 0.03,-0.41 0.03,-1.46 0.03,-1.71 0,-0.42 -0.03,-0.86 -0.07,-1.15 l -11.9,-16.08 3.76,0 8.14,11.08 c -0.26,-3.85 -0.61,-5.86 -0.61,-8.13 0,-2.12 0.97,-3.54 2.02,-3.54 1.83,0 3.06,2.15 3.89,5.21 z"
           id="path5917" /><polygon
           style="fill:#000000;stroke-width:0"
           points="607.73,422.14 607.73,425.43 578.39,425.43 578.39,422.14 "
           id="polygon5919" /><polygon
           style="fill:#000000;stroke-width:0"
           points="607.73,412.18 607.73,415.46 578.39,415.46 578.39,412.18 "
           id="polygon5921" /><path
           style="fill:#000000;stroke-width:0"
           inkscape:connector-curvature="0"
           d="m 639.14,398.18 -0.64,0.55 -0.6,0.55 -0.58,0.54 -0.54,0.55 -0.52,0.55 -0.49,0.55 -0.46,0.55 -0.43,0.56 -0.41,0.56 -0.38,0.57 -0.36,0.57 -0.33,0.58 -0.31,0.58 -0.29,0.6 -0.26,0.6 -0.25,0.61 -0.22,0.63 -0.2,0.63 -0.19,0.64 -0.17,0.66 -0.15,0.67 -0.13,0.69 -0.11,0.69 -0.1,0.72 -0.09,0.72 -0.07,0.75 -0.06,0.76 -0.05,0.78 -0.04,0.8 -0.02,0.82 -0.01,0.83 -0.01,0.86 c 0,9.61 1.55,14.25 8.47,20.17 l -0.44,0.8 c -7.98,-4.72 -12.31,-11.91 -12.31,-21.11 0,-8.48 4.28,-16.89 12.16,-21.37 z"
           id="path5923" /><path
           style="fill:#ff0000;fill-opacity:1;stroke-width:0"
           inkscape:connector-curvature="0"
           d="m 667.81,427.53 -12.3,0 c -6.48,0 -12.95,-5.44 -12.95,-13.91 0,-3.58 1.94,-7.97 7.06,-7.97 l 0.2,1.5 c -2.68,0 -3.23,3.49 -3.23,5.08 0,7.08 4.78,11.36 8.13,11.66 l 0.09,0 c 1.64,-1 3.59,-3.24 3.59,-6.43 0,-4.04 -3.64,-10.31 -8.58,-10.31 l -0.2,-1.5 c 7.23,0 12.77,5.53 12.77,11.11 0,3.74 -3.1,3.99 -4.19,7.13 l 8.61,0 z"
           id="path5925" /><path
           style="fill:#ff0000;fill-opacity:1;stroke-width:0"
           inkscape:connector-curvature="0"
           d="m 684.98,398.18 -0.64,0.55 -0.61,0.55 -0.57,0.54 -0.55,0.55 -0.51,0.55 -0.49,0.55 -0.46,0.55 -0.44,0.56 -0.4,0.56 -0.39,0.57 -0.35,0.57 -0.34,0.58 -0.3,0.58 -0.29,0.6 -0.27,0.6 -0.24,0.61 -0.22,0.63 -0.21,0.63 -0.18,0.64 -0.17,0.66 -0.15,0.67 -0.13,0.69 -0.12,0.69 -0.1,0.72 -0.09,0.72 -0.07,0.75 -0.06,0.76 -0.04,0.78 -0.04,0.8 -0.02,0.82 -0.02,0.83 0,0.86 c 0,9.61 1.54,14.25 8.47,20.17 l -0.44,0.8 c -7.99,-4.72 -12.31,-11.91 -12.31,-21.11 0,-8.48 4.28,-16.89 12.15,-21.37 z"
           id="path5927" /><path
           style="fill:#ff0000;fill-opacity:1;stroke-width:0"
           inkscape:connector-curvature="0"
           d="m 703.33,422.43 0,7.24 -1.09,0 c -0.3,-0.75 -0.59,-1 -1.25,-1 -0.3,0 -0.75,0.09 -1.55,0.34 -1.59,0.55 -2.73,0.75 -3.87,0.75 -4.54,0 -7.83,-3.08 -7.83,-7.26 0,-3.3 2.04,-5.58 7.08,-7.74 3.43,-1.48 4.78,-2.73 4.78,-4.33 0,-1.93 -1.5,-3.23 -3.74,-3.23 -3.48,0 -5.78,2.23 -6.83,6.58 l -1.38,0 0,-8.22 1.23,0 c 0.56,1.05 0.86,1.39 1.3,1.39 0.25,0 0.65,-0.11 1.15,-0.3 1.44,-0.61 3.99,-1.15 5.38,-1.15 4.53,0 7.67,3.09 7.67,7.57 0,3.54 -1.89,5.69 -6.88,7.77 -3.39,1.41 -4.78,2.7 -4.78,4.39 0,1.64 1.39,2.89 3.28,2.89 1.35,0 2.65,-0.55 3.75,-1.59 1.03,-1 1.6,-1.94 2.33,-4.1 z"
           id="path5929" /><path
           style="fill:#ff0000;fill-opacity:1;stroke-width:0"
           inkscape:connector-curvature="0"
           d="m 707.15,439.07 0.66,-0.53 0.63,-0.53 0.59,-0.54 0.56,-0.53 0.53,-0.54 0.5,-0.55 0.47,-0.54 0.44,-0.56 0.41,-0.55 0.38,-0.57 0.36,-0.57 0.33,-0.58 0.31,-0.59 0.28,-0.59 0.26,-0.61 0.24,-0.61 0.22,-0.63 0.2,-0.63 0.18,-0.65 0.16,-0.66 0.14,-0.68 0.12,-0.69 0.11,-0.7 0.09,-0.72 0.08,-0.73 0.07,-0.75 0.05,-0.77 0.05,-0.78 0.03,-0.81 0.02,-0.82 0.01,-0.84 0,-0.86 c 0,-9.68 -1.4,-14.35 -8.48,-20.18 l 0.45,-0.79 c 7.92,4.82 12.31,11.9 12.31,21.12 0,8.47 -4.53,16.78 -12.15,21.36 z"
           id="path5931" /><path
           style="fill:#000000;stroke-width:0"
           inkscape:connector-curvature="0"
           d="m 726.41,399.17 0.32,0.16 0.31,0.17 0.3,0.17 0.3,0.19 0.28,0.19 0.28,0.2 0.27,0.2 0.26,0.21 0.25,0.22 0.25,0.23 0.23,0.23 0.23,0.23 0.21,0.24 0.21,0.25 0.19,0.25 0.19,0.25 0.17,0.26 0.17,0.26 0.15,0.26 0.15,0.27 0.13,0.27 0.13,0.28 0.11,0.27 0.1,0.28 0.09,0.28 0.08,0.27 0.06,0.29 0.06,0.28 0.04,0.28 0.03,0.28 0.02,0.28 0.01,0.28 c 0,2.59 -1.75,4.33 -3.99,4.33 -1.79,0 -3,-1.14 -3,-2.85 0,-1.68 1.05,-2.53 2.9,-2.53 0.54,0 1.04,0.21 1.45,0.21 0.39,0 0.68,-0.32 0.68,-0.66 0,-1.64 -1.38,-3.49 -4.12,-5.33 z"
           id="path5933" /><path
           style="fill:#0000ff;fill-opacity:1;stroke-width:0"
           inkscape:connector-curvature="0"
           d="m 755.34,407.15 -0.3,0.01 -0.28,0.03 -0.29,0.04 -0.28,0.06 -0.27,0.08 -0.27,0.09 -0.26,0.1 -0.26,0.13 -0.25,0.13 -0.24,0.16 -0.24,0.16 -0.23,0.18 -0.22,0.19 -0.21,0.2 -0.21,0.22 -0.19,0.23 -0.19,0.24 -0.18,0.25 -0.16,0.26 -0.16,0.28 -0.14,0.28 -0.14,0.29 -0.12,0.3 -0.12,0.31 -0.1,0.32 -0.08,0.33 -0.08,0.33 -0.06,0.34 -0.05,0.35 -0.04,0.35 -0.02,0.36 0,0.37 c 0,6.53 4.98,12.66 10.71,13.25 l 0.25,0.8 -1.25,0 c -7.96,0 -13.9,-7.08 -13.9,-14.25 0,-5.24 4.09,-8.27 9.47,-8.27 l -2.14,-8.58 4.14,0 1.98,8.58 0.36,1.5 2.64,10.91 c 0.99,4.08 3.74,7.17 6.13,7.17 1.09,0 2.18,-0.59 2.18,-4.64 0,-6.52 -6.22,-13.44 -10.95,-13.44 l -0.36,-1.5 c 9.63,0 15.5,7.63 15.5,14.64 0,5.44 -2.3,7.74 -5.23,7.74 -6.77,0 -10.32,-7.08 -12.21,-14.41 z"
           id="path5935" /><path
           style="fill:#0000ff;fill-opacity:1;stroke-width:0"
           inkscape:connector-curvature="0"
           d="m 783.36,403.08 1.86,7.01 -6,-1.01 0.06,-0.56 c 0.43,0.07 0.75,0.12 1.05,0.12 0.86,0 1.2,-0.34 1.2,-0.75 l 0,-0.34 -3.51,-13.83 2.91,0 2.14,8.17 3.34,-5.7 c 0.24,-0.31 0.49,-0.99 0.49,-1.24 0,-0.64 -1.79,-0.64 -2.16,-0.64 l -0.03,-0.59 8.75,0 0.04,0.59 c -2.28,0.27 -2.87,0.46 -3.76,1.94 l -4.19,6.98 5.35,4.21 c 0.37,0.29 1.15,0.78 1.93,0.78 1.24,0 1.11,-1 2.24,-1 1.12,0 1.56,0.67 1.56,1.42 0,0.81 -0.48,1.52 -1.75,1.52 -1.42,0 -2.42,-0.33 -4.7,-2 z"
           id="path5937" /><path
           style="fill:#0000ff;fill-opacity:1;stroke-width:0"
           inkscape:connector-curvature="0"
           d="m 816.81,398.34 -0.07,-0.19 -0.07,-0.19 -0.07,-0.18 -0.07,-0.17 -0.07,-0.16 -0.07,-0.16 -0.07,-0.14 -0.07,-0.14 -0.06,-0.14 -0.07,-0.12 -0.06,-0.12 -0.07,-0.11 -0.06,-0.11 -0.06,-0.1 -0.06,-0.09 -0.06,-0.09 -0.06,-0.08 -0.06,-0.07 -0.06,-0.07 -0.06,-0.06 -0.06,-0.06 -0.06,-0.05 -0.05,-0.04 -0.06,-0.04 -0.06,-0.04 -0.05,-0.03 -0.06,-0.02 -0.05,-0.02 -0.06,-0.01 -0.05,-0.02 -0.05,0 -0.06,0 c -1.34,0 -1.42,2.42 -1.42,3.76 l 0,14.28 c 0,3.35 -0.7,5.06 -2.04,5.06 -2.05,0 -3.26,-2.79 -3.88,-5.14 l 0.59,0 c 0.79,2.1 1.43,2.75 1.97,2.75 1.1,0 1.91,-1.07 2.1,-3.57 0.03,-0.41 0.03,-1.46 0.03,-1.71 0,-0.42 -0.03,-0.86 -0.07,-1.15 l -11.9,-16.08 3.76,0 8.14,11.08 c -0.26,-3.85 -0.6,-5.86 -0.6,-8.13 0,-2.12 0.96,-3.55 2.01,-3.55 1.83,0 3.06,2.16 3.89,5.22 z"
           id="path5939" /><path
           style="fill:#0000ff;fill-opacity:1;stroke-width:0"
           inkscape:connector-curvature="0"
           d="m 836.3,398.18 -0.64,0.55 -0.6,0.55 -0.58,0.54 -0.54,0.55 -0.52,0.55 -0.49,0.55 -0.46,0.55 -0.43,0.56 -0.41,0.56 -0.38,0.57 -0.36,0.57 -0.33,0.58 -0.31,0.58 -0.29,0.6 -0.26,0.6 -0.25,0.61 -0.22,0.63 -0.2,0.63 -0.19,0.64 -0.17,0.66 -0.15,0.67 -0.13,0.69 -0.11,0.69 -0.1,0.72 -0.09,0.72 -0.07,0.75 -0.06,0.76 -0.05,0.78 -0.04,0.8 -0.02,0.82 -0.01,0.83 -0.01,0.86 c 0,9.61 1.55,14.25 8.47,20.17 l -0.44,0.8 c -7.98,-4.72 -12.31,-11.91 -12.31,-21.11 0,-8.48 4.28,-16.89 12.16,-21.37 z"
           id="path5941" /><path
           style="fill:#0000ff;fill-opacity:1;stroke-width:0"
           inkscape:connector-curvature="0"
           d="m 854.66,422.43 0,7.24 -1.1,0 c -0.29,-0.75 -0.59,-1 -1.25,-1 -0.29,0 -0.75,0.09 -1.54,0.34 -1.6,0.55 -2.74,0.75 -3.88,0.75 -4.53,0 -7.83,-3.08 -7.83,-7.26 0,-3.3 2.05,-5.58 7.08,-7.74 3.44,-1.48 4.78,-2.73 4.78,-4.33 0,-1.93 -1.5,-3.23 -3.73,-3.23 -3.49,0 -5.78,2.23 -6.83,6.58 l -1.39,0 0,-8.22 1.23,0 c 0.57,1.05 0.86,1.39 1.3,1.39 0.25,0 0.66,-0.11 1.16,-0.3 1.43,-0.61 3.98,-1.15 5.37,-1.15 4.53,0 7.67,3.09 7.67,7.57 0,3.54 -1.89,5.69 -6.87,7.77 -3.39,1.41 -4.78,2.7 -4.78,4.39 0,1.64 1.39,2.89 3.28,2.89 1.34,0 2.64,-0.55 3.75,-1.59 1.03,-1 1.59,-1.94 2.33,-4.1 z"
           id="path5943" /><path
           style="fill:#0000ff;fill-opacity:1;stroke-width:0"
           inkscape:connector-curvature="0"
           d="m 858.47,439.07 0.66,-0.53 0.63,-0.53 0.59,-0.54 0.56,-0.53 0.53,-0.54 0.5,-0.55 0.47,-0.54 0.44,-0.56 0.41,-0.55 0.39,-0.57 0.35,-0.57 0.34,-0.58 0.3,-0.59 0.29,-0.59 0.26,-0.61 0.24,-0.61 0.22,-0.63 0.19,-0.63 0.18,-0.65 0.16,-0.66 0.14,-0.68 0.13,-0.69 0.11,-0.7 0.09,-0.72 0.08,-0.73 0.06,-0.75 0.06,-0.77 0.04,-0.78 0.03,-0.81 0.02,-0.82 0.01,-0.84 0.01,-0.86 c 0,-9.68 -1.41,-14.35 -8.49,-20.18 l 0.46,-0.79 c 7.92,4.82 12.31,11.9 12.31,21.12 0,8.47 -4.53,16.78 -12.16,21.36 z"
           id="path5945" /><path
           style="fill:#000000;stroke-width:0"
           inkscape:connector-curvature="0"
           d="m 875.03,439.07 0.66,-0.53 0.63,-0.53 0.59,-0.54 0.56,-0.53 0.53,-0.54 0.5,-0.55 0.47,-0.54 0.44,-0.56 0.41,-0.55 0.38,-0.57 0.36,-0.57 0.34,-0.58 0.3,-0.59 0.29,-0.59 0.26,-0.61 0.24,-0.61 0.21,-0.63 0.2,-0.63 0.18,-0.65 0.16,-0.66 0.14,-0.68 0.13,-0.69 0.1,-0.7 0.1,-0.72 0.08,-0.73 0.06,-0.75 0.06,-0.77 0.04,-0.78 0.03,-0.81 0.02,-0.82 0.01,-0.84 0.01,-0.86 c 0,-9.68 -1.41,-14.35 -8.49,-20.18 l 0.45,-0.79 c 7.93,4.82 12.32,11.9 12.32,21.12 0,8.47 -4.53,16.78 -12.16,21.36 z"
           id="path5947" /><path
           style="fill:#000000;stroke-width:0"
           inkscape:connector-curvature="0"
           d="m 897.43,417.03 0.17,0.06 0.17,0.05 0.17,0.05 0.17,0.04 0.17,0.05 0.17,0.03 0.17,0.04 0.16,0.03 0.17,0.03 0.17,0.03 0.18,0.02 0.17,0.02 0.17,0.02 0.18,0.01 0.19,0 0.18,0.01 c 3.8,0 4.89,-3.47 4.89,-6.75 0,-0.91 -0.12,-1.8 -0.26,-2.61 -0.79,1.37 -2.39,1.78 -3.58,1.78 l 0.33,-1.11 c 1.01,0 2.28,-0.8 2.28,-3.22 l 0,0 c 0,-1.16 -0.22,-2.42 -0.57,-3.66 -1.04,-3.79 -3.25,-7.53 -6.1,-7.53 -2.36,0 -2.5,2.25 -2.5,3.66 0,5.19 3.2,10.75 6.89,10.75 l -0.33,1.11 c -5.46,0 -9.59,-5.33 -9.59,-10.6 0,-3.15 1.42,-6.03 5.07,-6.03 8.72,0 11,10.1 11,15.63 0,6.33 -2.31,9.68 -7.01,9.68 -1.27,0 -2.61,-0.21 -3.64,-0.85 z"
           id="path5949" /><path
           style="fill:#000000;stroke-width:0"
           inkscape:connector-curvature="0"
           d="m 935.75,418.3 -0.67,0 c -0.56,-0.94 -1.15,-1.02 -1.56,-1.02 -1.94,0 -3.89,1.02 -5.89,1.02 -9.03,0 -16.53,-6.08 -16.53,-14.66 0,-5.48 3.55,-10.37 10.75,-10.37 1.45,0 4.28,0.23 7.18,2.28 1.08,0.78 2.32,1.9 3.33,3.43 l -0.75,0.49 c -0.18,-0.27 -0.37,-0.49 -0.64,-0.75 -1.67,-1.83 -4.39,-3.66 -8.04,-3.66 -5.03,0 -7.28,3.8 -7.28,7.99 0,6.37 4.4,13.86 11.9,13.86 4.52,0 5.67,-2.94 5.67,-5.36 0,-0.94 0,-1.27 -0.04,-1.57 l 0.59,0 z"
           id="path5951" /></g>    </g>
    <g
       id="g6224"
       transform="matrix(1.1527872,0,0,1.1527872,358.23395,-571.88523)">
      <g
         word-spacing="normal"
         letter-spacing="normal"
         font-size-adjust="none"
         font-stretch="normal"
         font-weight="normal"
         font-variant="normal"
         font-style="normal"
         stroke-miterlimit="10.433"
         xml:space="preserve"
         transform="matrix(0.4077659,0,0,-0.4077659,-71.359033,999.15055)"
         id="g6226"
         style="font-style:normal;font-variant:normal;font-weight:normal;font-stretch:normal;letter-spacing:normal;word-spacing:normal;text-anchor:start;fill:none;fill-opacity:1;fill-rule:evenodd;stroke:#000000;stroke-linecap:butt;stroke-linejoin:miter;stroke-miterlimit:10.43299961;stroke-dasharray:none;stroke-dashoffset:0;stroke-opacity:1"><path
           id="path6228"
           d="m 467.88,427.96 -0.45,-1.89 3.84,0 -4.34,-17.03 c -0.75,-2.84 -2.24,-10.72 -5.49,-10.72 -0.44,0 -0.73,0.16 -0.73,0.46 0,0.59 0.79,0.64 0.79,1.59 0,0.75 -0.5,1.64 -1.84,1.64 -1.45,0 -2.14,-1.25 -2.14,-2.44 0,-1.5 1.19,-2.68 3.58,-2.68 4.39,0 7.08,4.73 8.72,8.86 0.75,1.84 1.14,3.73 1.5,5.09 l 3.93,15.23 3.79,0 0.59,1.89 -3.99,0 0.96,3.5 c 1.04,3.88 2.98,6.57 5.48,6.57 0.6,0 0.74,-0.14 0.74,-0.39 0,-0.41 -0.44,-1.14 -0.44,-1.85 0,-0.7 0.34,-1.25 1.73,-1.25 1,0 2.05,0.61 2.05,2 0,1.74 -1.44,2.94 -3.94,2.94 -3.78,0 -5.92,-2.14 -7.47,-4.48 -2.14,-3.19 -1.89,-7.04 -5.03,-7.04 z"
           inkscape:connector-curvature="0"
           style="fill:#000000;stroke-width:0" /><path
           id="path6230"
           d="m 490.32,403.08 1.86,7.01 -6,-1.01 0.07,-0.56 c 0.42,0.07 0.75,0.12 1.04,0.12 0.86,0 1.21,-0.34 1.21,-0.75 l 0,-0.34 -3.52,-13.83 2.91,0 2.14,8.17 3.34,-5.7 c 0.24,-0.31 0.49,-0.99 0.49,-1.24 0,-0.64 -1.79,-0.64 -2.16,-0.64 l -0.03,-0.59 8.75,0 0.04,0.59 c -2.28,0.27 -2.87,0.46 -3.76,1.94 l -4.19,6.98 5.35,4.21 c 0.37,0.29 1.15,0.78 1.93,0.78 1.24,0 1.11,-1 2.24,-1 1.12,0 1.56,0.67 1.56,1.42 0,0.81 -0.48,1.52 -1.75,1.52 -1.42,0 -2.42,-0.33 -4.7,-2 z"
           inkscape:connector-curvature="0"
           style="fill:#000000;stroke-width:0" /><path
           id="path6232"
           d="m 523.77,398.34 -0.07,-0.19 -0.07,-0.19 -0.08,-0.18 -0.07,-0.17 -0.07,-0.16 -0.06,-0.16 -0.07,-0.14 -0.07,-0.14 -0.06,-0.14 -0.07,-0.12 -0.06,-0.12 -0.07,-0.11 -0.06,-0.11 -0.06,-0.1 -0.07,-0.09 -0.06,-0.09 -0.06,-0.08 -0.06,-0.07 -0.06,-0.07 -0.06,-0.06 -0.05,-0.06 -0.06,-0.05 -0.06,-0.04 -0.05,-0.04 -0.06,-0.04 -0.06,-0.03 -0.05,-0.02 -0.06,-0.02 -0.05,-0.01 -0.05,-0.02 -0.06,0 -0.05,0 c -1.34,0 -1.42,2.42 -1.42,3.76 l 0,14.28 c 0,3.35 -0.7,5.06 -2.05,5.06 -2.05,0 -3.25,-2.79 -3.87,-5.14 l 0.59,0 c 0.78,2.1 1.42,2.75 1.97,2.75 1.09,0 1.91,-1.07 2.09,-3.57 0.04,-0.41 0.04,-1.46 0.04,-1.71 0,-0.42 -0.04,-0.86 -0.07,-1.15 l -11.9,-16.08 3.76,0 8.14,11.08 c -0.26,-3.85 -0.61,-5.86 -0.61,-8.13 0,-2.12 0.97,-3.55 2.02,-3.55 1.83,0 3.06,2.16 3.89,5.22 z"
           inkscape:connector-curvature="0"
           style="fill:#000000;stroke-width:0" /><polygon
           id="polygon6234"
           points="573.66,422.14 573.66,425.43 544.31,425.43 544.31,422.14 "
           style="fill:#000000;stroke-width:0" /><polygon
           id="polygon6236"
           points="573.66,412.18 573.66,415.46 544.31,415.46 544.31,412.18 "
           style="fill:#000000;stroke-width:0" /><path
           id="path6238"
           d="m 602.28,427.96 -0.46,-1.89 3.85,0 -4.35,-17.03 c -0.75,-2.84 -2.23,-10.72 -5.48,-10.72 -0.44,0 -0.74,0.16 -0.74,0.46 0,0.59 0.8,0.64 0.8,1.59 0,0.75 -0.5,1.64 -1.84,1.64 -1.46,0 -2.14,-1.25 -2.14,-2.44 0,-1.5 1.18,-2.68 3.58,-2.68 4.39,0 7.07,4.73 8.72,8.86 0.75,1.84 1.13,3.73 1.5,5.09 l 3.93,15.23 3.78,0 0.6,1.89 -3.99,0 0.96,3.5 c 1.04,3.88 2.98,6.57 5.48,6.57 0.59,0 0.74,-0.14 0.74,-0.39 0,-0.41 -0.44,-1.14 -0.44,-1.85 0,-0.7 0.34,-1.25 1.73,-1.25 1,0 2.05,0.61 2.05,2 0,1.74 -1.44,2.94 -3.94,2.94 -3.78,0 -5.92,-2.14 -7.47,-4.48 -2.14,-3.19 -1.89,-7.04 -5.03,-7.04 z"
           inkscape:connector-curvature="0"
           style="fill:#000000;stroke-width:0" /><path
           id="path6240"
           d="m 641.3,441.22 -5.17,0 0,-0.56 c 1.19,-0.11 1.75,-0.48 1.75,-1.19 0,-0.37 -0.08,-0.75 -0.23,-1.12 l -3.69,-9.66 -3.8,9.55 c -0.23,0.56 -0.34,1.05 -0.34,1.42 0,0.63 0.45,0.89 1.71,1 l 0,0.56 -7.31,0 0,-0.56 c 1.43,-0.08 1.8,-0.44 3.41,-4.28 l 4.47,-10.7 c 0.14,-0.35 0.18,-0.6 0.3,-0.79 0.26,-0.67 0.45,-0.96 0.67,-0.96 0.21,0 0.48,0.48 1.04,1.86 l 4.77,11.96 c 1.02,2.5 1.31,2.8 2.42,2.91 z"
           inkscape:connector-curvature="0"
           style="fill:#000000;stroke-width:0" /><path
           id="path6242"
           d="m 658,426.91 -0.06,-0.05 -0.05,-0.05 -0.06,-0.04 -0.05,-0.04 -0.06,-0.04 -0.05,-0.04 -0.05,-0.04 -0.05,-0.04 -0.05,-0.03 -0.05,-0.03 -0.05,-0.03 -0.05,-0.03 -0.05,-0.03 -0.05,-0.02 -0.04,-0.03 -0.05,-0.02 -0.04,-0.02 -0.05,-0.02 -0.05,-0.02 -0.04,-0.01 -0.05,-0.02 -0.05,-0.01 -0.05,-0.01 -0.04,-0.01 -0.05,-0.01 -0.05,-0.01 -0.05,0 -0.05,-0.01 -0.05,0 -0.06,-0.01 -0.05,0 -0.05,0 c -0.68,0 -1.16,0.75 -1.16,2.47 l 0,7.13 c 0,2.26 -0.14,3.04 -1.05,4.12 -0.89,1.09 -2.31,1.69 -4.39,1.69 -1.69,0 -3.25,-0.46 -4.3,-1.13 -1.29,-0.81 -1.89,-2.01 -1.89,-2.98 0,-1 0.82,-1.7 1.6,-1.7 0.97,0 1.72,0.81 1.72,1.51 0,0.78 -0.22,0.91 -0.22,1.58 0,1 1.11,1.83 2.61,1.83 1.67,0 2.9,-1.05 2.9,-3.36 l 0,-2.02 0,-0.89 0,-5.26 c 0,-1.08 -0.22,-1.61 -1.31,-2.35 -0.63,-0.42 -1.41,-0.59 -2.16,-0.59 -1.45,0 -2.57,0.89 -2.57,2.86 0,1.15 0.37,2.06 1.26,2.87 0.94,0.86 2.47,1.64 4.78,2.47 l 0,0.89 c -4.22,-1.56 -5.59,-2.28 -6.72,-3.01 -1.45,-0.97 -2.6,-2.44 -2.6,-4.38 0,-2.45 1.6,-3.87 3.92,-3.87 1.61,0 3.42,0.48 5.4,2.72 l 0.03,0 c 0.19,-1.97 1.02,-2.72 2.4,-2.72 1.26,0 2.23,0.37 3.35,1.79 z"
           inkscape:connector-curvature="0"
           style="fill:#000000;stroke-width:0" /><path
           id="path6244"
           d="m 672.92,430.25 -0.17,-0.24 -0.16,-0.23 -0.16,-0.22 -0.16,-0.21 -0.16,-0.2 -0.16,-0.19 -0.16,-0.18 -0.15,-0.17 -0.15,-0.17 -0.16,-0.15 -0.15,-0.15 -0.15,-0.14 -0.16,-0.13 -0.15,-0.12 -0.15,-0.12 -0.16,-0.1 -0.15,-0.1 -0.16,-0.1 -0.16,-0.08 -0.16,-0.08 -0.16,-0.07 -0.16,-0.06 -0.17,-0.06 -0.17,-0.05 -0.17,-0.04 -0.17,-0.04 -0.18,-0.03 -0.18,-0.02 -0.19,-0.02 -0.18,-0.02 -0.2,0 -0.19,-0.01 c -3.43,0 -5.78,2.99 -5.78,7.27 0,3.89 2.06,6.5 5.07,6.5 1.35,0 1.83,-0.42 2.21,-1.8 l 0.22,-0.81 c 0.29,-1.09 0.96,-1.72 1.79,-1.72 0.97,0 1.75,0.7 1.75,1.56 0,2.1 -2.61,3.85 -5.75,3.85 -1.75,0 -3.53,-0.67 -5.03,-1.91 -2.02,-1.67 -3.12,-4.25 -3.12,-7.34 0,-4.81 2.93,-8.28 7.07,-8.28 1.61,0 3.02,0.53 4.3,1.56 1.11,0.91 1.86,1.98 3.05,4.3 z"
           inkscape:connector-curvature="0"
           style="fill:#000000;stroke-width:0" /><path
           id="path6246"
           d="m 624.72,395.4 1.86,7.01 -6,-1.01 0.07,-0.56 c 0.42,0.07 0.75,0.12 1.04,0.12 0.86,0 1.21,-0.34 1.21,-0.75 l 0,-0.34 -3.52,-13.83 2.9,0 2.15,8.17 3.34,-5.7 c 0.23,-0.31 0.48,-0.99 0.48,-1.24 0,-0.64 -1.78,-0.64 -2.15,-0.64 l -0.03,-0.59 8.75,0 0.04,0.59 c -2.28,0.27 -2.87,0.46 -3.76,1.94 l -4.19,6.98 5.34,4.21 c 0.38,0.29 1.16,0.78 1.94,0.78 1.24,0 1.11,-1 2.24,-1 1.12,0 1.56,0.67 1.56,1.42 0,0.81 -0.49,1.52 -1.75,1.52 -1.42,0 -2.42,-0.33 -4.71,-2 z"
           inkscape:connector-curvature="0"
           style="fill:#000000;stroke-width:0" /><path
           id="path6248"
           d="m 658.17,390.66 -0.07,-0.19 -0.07,-0.19 -0.07,-0.18 -0.07,-0.17 -0.07,-0.16 -0.07,-0.16 -0.07,-0.14 -0.07,-0.14 -0.06,-0.14 -0.07,-0.12 -0.06,-0.12 -0.07,-0.11 -0.06,-0.11 -0.06,-0.1 -0.06,-0.09 -0.06,-0.09 -0.06,-0.08 -0.06,-0.07 -0.06,-0.07 -0.06,-0.06 -0.06,-0.06 -0.06,-0.05 -0.06,-0.04 -0.05,-0.04 -0.06,-0.04 -0.05,-0.03 -0.06,-0.02 -0.05,-0.02 -0.06,-0.01 -0.05,-0.02 -0.05,0 -0.06,0 c -1.34,0 -1.42,2.42 -1.42,3.76 l 0,14.28 c 0,3.35 -0.7,5.07 -2.05,5.07 -2.04,0 -3.25,-2.8 -3.87,-5.15 l 0.59,0 c 0.78,2.1 1.43,2.75 1.97,2.75 1.1,0 1.91,-1.07 2.1,-3.57 0.03,-0.41 0.03,-1.46 0.03,-1.71 0,-0.42 -0.03,-0.86 -0.07,-1.15 l -11.9,-16.08 3.76,0 8.14,11.08 c -0.26,-3.85 -0.6,-5.86 -0.6,-8.13 0,-2.12 0.96,-3.54 2.01,-3.54 1.83,0 3.06,2.15 3.89,5.21 z"
           inkscape:connector-curvature="0"
           style="fill:#000000;stroke-width:0" /><polygon
           id="polygon6250"
           points="703.59,433.45 703.59,420.45 690.59,420.45 690.59,417.15 703.59,417.15 703.59,404.15 706.89,404.15 706.89,417.15 719.89,417.15 719.89,420.45 706.89,420.45 706.89,433.45 "
           style="fill:#000000;stroke-width:0" /><path
           id="path6252"
           d="m 745.75,428.82 -0.2,0.19 c -2.5,-1.09 -5.19,-1.44 -7.78,-2.09 l 0,-0.74 c 0.65,0 2.84,0 2.84,-1 0,-0.4 -0.14,-0.84 -0.25,-1.25 l -2.89,-10.45 c -0.3,-1 -0.44,-2.05 -0.44,-3.09 0,-3.64 2.58,-4.64 5.77,-4.64 3.68,0 7.53,2.2 9.67,5.18 2.89,3.99 4.83,9.02 4.83,13.96 0,1.59 -0.25,4.12 -2.35,4.12 -1.43,0 -2.68,-0.39 -2.68,-2.09 0,-2.19 3.04,-1.74 3.04,-5.42 0,-1.25 -0.36,-2.5 -0.75,-3.69 -1.59,-4.49 -5.08,-10.11 -10.47,-10.11 -1.98,0 -2.98,1.39 -2.98,3.28 0,0.55 0.05,1.09 0.2,1.59 z"
           inkscape:connector-curvature="0"
           style="fill:#000000;stroke-width:0" /><path
           id="path6254"
           d="m 759.23,449.13 0,-0.7 c 2.77,-0.24 3.15,-0.68 3.15,-3.44 l 0,-16 c 0,-3.2 -0.24,-3.61 -3.15,-3.85 l 0,-0.7 10.44,0 0,0.7 c -3.01,0.16 -3.5,0.65 -3.5,3.47 l 0,6.68 0,1.5 0,9.62 c 0,1 0.22,1.34 1.31,1.34 5.07,0 7.3,-1.5 7.3,-5.59 0,-3.36 -2.23,-5.48 -6.33,-5.48 -0.75,0 -1.42,0.03 -2.28,0.11 l 0,-1.5 c 1.02,-0.07 1.61,-0.11 2.58,-0.11 3.98,0 5.81,0.34 7.97,2.28 1.39,1.23 2.14,2.9 2.14,4.89 0,1.86 -0.64,3.39 -1.88,4.44 -1.67,1.4 -4.36,2.34 -8.09,2.34 z"
           inkscape:connector-curvature="0"
           style="fill:#000000;stroke-width:0" /><path
           id="path6256"
           d="m 802.29,429.33 -0.26,-0.24 -0.26,-0.24 -0.25,-0.22 -0.25,-0.22 -0.25,-0.21 -0.24,-0.2 -0.24,-0.19 -0.24,-0.19 -0.24,-0.17 -0.24,-0.17 -0.23,-0.16 -0.24,-0.15 -0.24,-0.14 -0.23,-0.13 -0.24,-0.13 -0.24,-0.12 -0.24,-0.11 -0.25,-0.1 -0.24,-0.1 -0.25,-0.08 -0.25,-0.08 -0.26,-0.08 -0.26,-0.06 -0.26,-0.06 -0.27,-0.05 -0.27,-0.04 -0.28,-0.04 -0.28,-0.03 -0.29,-0.02 -0.3,-0.02 -0.3,-0.01 -0.31,0 c -2.57,0 -5,0.92 -6.64,2.67 -1.75,1.9 -2.68,4.81 -2.68,8.92 0,6.45 3.32,11 8.94,11 2.44,0 4.38,-1.08 6.02,-2.84 0.92,-1 1.48,-2.08 1.93,-4.13 l 0.86,0 -0.34,8.45 -0.75,0 c -0.22,-0.78 -0.84,-1.21 -1.56,-1.21 -0.63,0 -1.78,0.43 -2.57,0.67 -1.5,0.4 -2.98,0.54 -4.43,0.54 -3.47,0 -6.69,-1.21 -9.07,-3.87 -2.12,-2.39 -3.35,-5.48 -3.35,-9.2 0,-3.71 1.29,-7.1 3.57,-9.33 2.16,-2.13 5.41,-3.31 8.8,-3.31 4.41,0 8.02,1.64 10.19,4.73 z"
           inkscape:connector-curvature="0"
           style="fill:#000000;stroke-width:0" /><path
           id="path6258"
           d="m 836.57,424.44 0,0.7 c -2.72,0.19 -3.28,0.83 -3.28,3.47 l 0,16.35 c 0,2.79 0.56,3.42 3.25,3.47 l 0,0.7 -7.42,0 -8.25,-18.72 -8.61,18.72 -7.39,0 0,-0.7 c 3.06,-0.19 3.55,-0.68 3.55,-3.52 l 0,-14.84 c 0,-4.18 -0.52,-4.69 -3.61,-4.93 l 0,-0.7 8.72,0 0,0.7 c -2.88,0.16 -3.47,0.83 -3.47,4.93 l 0,14.84 9.41,-20.47 0.51,0 9.52,21.33 0,-16.73 c 0,-3.11 -0.43,-3.71 -3.36,-3.9 l 0,-0.7 z"
           inkscape:connector-curvature="0"
           style="fill:#000000;stroke-width:0" /><path
           id="path6260"
           d="m 765.84,395.4 1.86,7.01 -6,-1.01 0.07,-0.56 c 0.42,0.07 0.75,0.12 1.04,0.12 0.86,0 1.21,-0.34 1.21,-0.75 l 0,-0.34 -3.52,-13.83 2.91,0 2.14,8.17 3.34,-5.7 c 0.23,-0.31 0.49,-0.99 0.49,-1.24 0,-0.64 -1.79,-0.64 -2.16,-0.64 l -0.03,-0.59 8.75,0 0.04,0.59 c -2.28,0.27 -2.87,0.46 -3.76,1.94 l -4.19,6.98 5.35,4.21 c 0.37,0.29 1.15,0.78 1.93,0.78 1.24,0 1.11,-1 2.24,-1 1.12,0 1.56,0.67 1.56,1.42 0,0.81 -0.49,1.52 -1.75,1.52 -1.42,0 -2.42,-0.33 -4.7,-2 z"
           inkscape:connector-curvature="0"
           style="fill:#000000;stroke-width:0" /><path
           id="path6262"
           d="m 799.29,390.66 -0.07,-0.19 -0.07,-0.19 -0.07,-0.18 -0.07,-0.17 -0.07,-0.16 -0.07,-0.16 -0.07,-0.14 -0.06,-0.14 -0.07,-0.14 -0.07,-0.12 -0.06,-0.12 -0.06,-0.11 -0.07,-0.11 -0.06,-0.1 -0.06,-0.09 -0.06,-0.09 -0.06,-0.08 -0.06,-0.07 -0.06,-0.07 -0.06,-0.06 -0.06,-0.06 -0.06,-0.05 -0.05,-0.04 -0.06,-0.04 -0.06,-0.04 -0.05,-0.03 -0.06,-0.02 -0.05,-0.02 -0.06,-0.01 -0.05,-0.02 -0.05,0 -0.06,0 c -1.34,0 -1.42,2.42 -1.42,3.76 l 0,14.28 c 0,3.35 -0.7,5.07 -2.05,5.07 -2.04,0 -3.25,-2.8 -3.87,-5.15 l 0.59,0 c 0.78,2.1 1.43,2.75 1.97,2.75 1.1,0 1.91,-1.07 2.1,-3.57 0.03,-0.41 0.03,-1.46 0.03,-1.71 0,-0.42 -0.03,-0.86 -0.07,-1.15 l -11.9,-16.08 3.77,0 8.13,11.08 c -0.26,-3.85 -0.6,-5.86 -0.6,-8.13 0,-2.12 0.97,-3.54 2.01,-3.54 1.83,0 3.06,2.15 3.89,5.21 z"
           inkscape:connector-curvature="0"
           style="fill:#000000;stroke-width:0" /></g>    </g>
    <g
       style="display:inline"
       id="g4719"
       transform="matrix(1.5518981,0,0,1.5518981,-333.09809,-900.57429)">
      <g
         id="content"
         transform="matrix(0.4077659,0,0,-0.4077659,-71.359033,999.15055)"
         xml:space="preserve"
         stroke-miterlimit="10.433"
         font-style="normal"
         font-variant="normal"
         font-weight="normal"
         font-stretch="normal"
         font-size-adjust="none"
         letter-spacing="normal"
         word-spacing="normal"
         style="font-style:normal;font-variant:normal;font-weight:normal;font-stretch:normal;letter-spacing:normal;word-spacing:normal;text-anchor:start;fill:none;fill-opacity:1;fill-rule:evenodd;stroke:#000000;stroke-linecap:butt;stroke-linejoin:miter;stroke-miterlimit:10.43299961;stroke-dasharray:none;stroke-dashoffset:0;stroke-opacity:1"><path
           d="m 467.83,407.15 -0.29,0.01 -0.29,0.03 -0.28,0.04 -0.28,0.06 -0.28,0.08 -0.26,0.09 -0.27,0.1 -0.25,0.13 -0.25,0.13 -0.25,0.16 -0.23,0.16 -0.23,0.18 -0.22,0.19 -0.22,0.2 -0.2,0.22 -0.2,0.23 -0.18,0.24 -0.18,0.25 -0.17,0.26 -0.15,0.28 -0.15,0.28 -0.13,0.29 -0.13,0.3 -0.11,0.31 -0.1,0.32 -0.09,0.33 -0.07,0.33 -0.07,0.34 -0.04,0.35 -0.04,0.35 -0.02,0.36 -0.01,0.37 c 0,6.53 4.99,12.66 10.72,13.25 l 0.25,0.8 -1.25,0 c -7.97,0 -13.91,-7.08 -13.91,-14.25 0,-5.24 4.1,-8.27 9.47,-8.27 l -2.14,-8.58 4.14,0 1.99,8.58 0.36,1.5 2.64,10.91 c 0.98,4.08 3.73,7.17 6.12,7.17 1.1,0 2.19,-0.59 2.19,-4.64 0,-6.52 -6.22,-13.44 -10.95,-13.44 l -0.36,-1.5 c 9.62,0 15.5,7.63 15.5,14.64 0,5.44 -2.3,7.74 -5.24,7.74 -6.76,0 -10.31,-7.08 -12.2,-14.41 z"
           id="path4722"
           inkscape:connector-curvature="0"
           style="fill:#0000ff;fill-opacity:1;stroke-width:0" /><path
           d="m 503.78,398.18 -0.64,0.55 -0.61,0.55 -0.57,0.54 -0.55,0.55 -0.51,0.55 -0.49,0.55 -0.46,0.55 -0.44,0.56 -0.4,0.56 -0.38,0.57 -0.36,0.57 -0.33,0.58 -0.31,0.58 -0.29,0.6 -0.27,0.6 -0.24,0.61 -0.22,0.63 -0.21,0.63 -0.18,0.64 -0.17,0.66 -0.15,0.67 -0.13,0.69 -0.12,0.69 -0.1,0.72 -0.08,0.72 -0.08,0.75 -0.06,0.76 -0.04,0.78 -0.04,0.8 -0.02,0.82 -0.02,0.83 0,0.86 c 0,9.61 1.55,14.25 8.47,20.17 l -0.44,0.8 c -7.98,-4.72 -12.31,-11.91 -12.31,-21.11 0,-8.48 4.28,-16.89 12.15,-21.37 z"
           id="path4724"
           inkscape:connector-curvature="0"
           style="fill:#0000ff;fill-opacity:1;stroke-width:0" /><path
           d="m 522.13,422.43 0,7.24 -1.09,0 c -0.3,-0.75 -0.59,-1 -1.25,-1 -0.3,0 -0.75,0.09 -1.55,0.34 -1.59,0.55 -2.73,0.75 -3.87,0.75 -4.53,0 -7.83,-3.08 -7.83,-7.26 0,-3.3 2.05,-5.58 7.08,-7.74 3.43,-1.48 4.78,-2.73 4.78,-4.33 0,-1.93 -1.5,-3.23 -3.74,-3.23 -3.48,0 -5.78,2.23 -6.82,6.58 l -1.39,0 0,-8.22 1.23,0 c 0.56,1.05 0.86,1.39 1.3,1.39 0.25,0 0.65,-0.11 1.15,-0.3 1.44,-0.61 3.99,-1.15 5.38,-1.15 4.53,0 7.67,3.09 7.67,7.57 0,3.54 -1.89,5.69 -6.88,7.77 -3.39,1.41 -4.78,2.7 -4.78,4.39 0,1.64 1.39,2.89 3.28,2.89 1.35,0 2.65,-0.55 3.75,-1.59 1.04,-1 1.6,-1.94 2.33,-4.1 z"
           id="path4726"
           inkscape:connector-curvature="0"
           style="fill:#0000ff;fill-opacity:1;stroke-width:0" /><path
           d="m 525.95,439.07 0.66,-0.53 0.63,-0.53 0.59,-0.54 0.56,-0.53 0.53,-0.54 0.5,-0.55 0.47,-0.54 0.44,-0.56 0.41,-0.55 0.38,-0.57 0.36,-0.57 0.33,-0.58 0.31,-0.59 0.28,-0.59 0.27,-0.61 0.23,-0.61 0.22,-0.63 0.2,-0.63 0.18,-0.65 0.16,-0.66 0.14,-0.68 0.12,-0.69 0.11,-0.7 0.1,-0.72 0.08,-0.73 0.06,-0.75 0.05,-0.77 0.05,-0.78 0.03,-0.81 0.02,-0.82 0.01,-0.84 0,-0.86 c 0,-9.68 -1.4,-14.35 -8.48,-20.18 l 0.45,-0.79 c 7.92,4.82 12.32,11.9 12.32,21.12 0,8.47 -4.54,16.78 -12.16,21.36 z"
           id="path4728"
           inkscape:connector-curvature="0"
           style="fill:#0000ff;fill-opacity:1;stroke-width:0" /></g>    </g>
    <text
       sodipodi:linespacing="125%"
       id="text4162-3"
       y="354.8157"
       x="319.41632"
       style="font-style:normal;font-weight:normal;font-size:21.29232597px;line-height:125%;font-family:sans-serif;letter-spacing:0px;word-spacing:0px;display:inline;fill:#000000;fill-opacity:1;stroke:none;stroke-width:1px;stroke-linecap:butt;stroke-linejoin:miter;stroke-opacity:1"
       xml:space="preserve"><tspan
         style="font-style:normal;font-variant:normal;font-weight:bold;font-stretch:normal;font-family:'TeX Gyre Heros';-inkscape-font-specification:'TeX Gyre Heros Bold'"
         y="354.8157"
         x="319.41632"
         id="tspan4164-6"
         sodipodi:role="line">Update</tspan></text>
    <text
       sodipodi:linespacing="125%"
       id="text4162-8-7"
       y="343.91632"
       x="520.46625"
       style="font-style:normal;font-weight:normal;font-size:21.29232597px;line-height:125%;font-family:sans-serif;letter-spacing:0px;word-spacing:0px;display:inline;fill:#000000;fill-opacity:1;stroke:none;stroke-width:1px;stroke-linecap:butt;stroke-linejoin:miter;stroke-opacity:1"
       xml:space="preserve"><tspan
         id="tspan4791-5"
         style="font-style:normal;font-variant:normal;font-weight:bold;font-stretch:normal;font-family:'TeX Gyre Heros';-inkscape-font-specification:'TeX Gyre Heros Bold'"
         y="343.91632"
         x="520.46625"
         sodipodi:role="line">Diagonalize</tspan></text>
  </g>
</svg>
